STARTFONT 2.3
FONT -FontForge-Shadows Into Light-Book-R-Normal--20-200-72-72-P-83-ISO10646-1
SIZE 20 72 72  2
FONTBOUNDINGBOX 29 33 -4 -9
COMMENT "Generated by fontforge, http://fontforge.sourceforge.net"
COMMENT "Copyright (c) 2010, Kimberly Geswein (kimberlygeswein.com)"
STARTPROPERTIES 40
FOUNDRY "FontForge"
FAMILY_NAME "Shadows Into Light"
WEIGHT_NAME "Book"
SLANT "R"
SETWIDTH_NAME "Normal"
ADD_STYLE_NAME ""
PIXEL_SIZE 20
POINT_SIZE 200
RESOLUTION_X 72
RESOLUTION_Y 72
SPACING "P"
AVERAGE_WIDTH 83
CHARSET_REGISTRY "ISO10646"
CHARSET_ENCODING "1"
FONTNAME_REGISTRY ""
CHARSET_COLLECTIONS "ISO8859-2 ISO8859-9 ISO8859-4 ISO10646-1"
BITS_PER_PIXEL 2
FONT_NAME "ShadowsIntoLight"
FACE_NAME "Shadows Into Light"
COPYRIGHT "Copyright (c) 2010, Kimberly Geswein (kimberlygeswein.com)"
FONT_VERSION "001.000"
FONT_ASCENT 16
FONT_DESCENT 4
UNDERLINE_POSITION 0
UNDERLINE_THICKNESS 0
X_HEIGHT 11
CAP_HEIGHT 13
RAW_ASCENT 799
RAW_DESCENT 200
NORM_SPACE 9
RELATIVE_WEIGHT 40
RELATIVE_SETWIDTH 50
SUPERSCRIPT_X 0
SUPERSCRIPT_Y 9
SUPERSCRIPT_SIZE 13
SUBSCRIPT_X 0
SUBSCRIPT_Y 2
SUBSCRIPT_SIZE 13
AVG_LOWERCASE_WIDTH 75
AVG_UPPERCASE_WIDTH 98
ENDPROPERTIES
CHARS 352
STARTCHAR space
ENCODING 32
SWIDTH 450 0
DWIDTH 9 0
BBX 1 1 0 0
BITMAP
00
ENDCHAR
STARTCHAR exclam
ENCODING 33
SWIDTH 137 0
DWIDTH 3 0
BBX 3 17 0 0
BITMAP
50
50
90
90
90
90
90
90
A0
A0
00
00
00
00
00
00
14
ENDCHAR
STARTCHAR quotedbl
ENCODING 34
SWIDTH 212 0
DWIDTH 4 0
BBX 4 6 0 10
BITMAP
51
66
66
66
26
20
ENDCHAR
STARTCHAR numbersign
ENCODING 35
SWIDTH 450 0
DWIDTH 9 0
BBX 8 11 1 2
BITMAP
0080
10C0
24C0
18F4
6ED0
6891
18A9
19E0
2D60
A820
0810
ENDCHAR
STARTCHAR dollar
ENCODING 36
SWIDTH 445 0
DWIDTH 9 0
BBX 9 18 0 -2
BITMAP
004000
008000
018000
01E400
07D000
198000
718000
918000
A5D000
1AD600
00C240
009600
00B800
02E000
01A000
006000
003000
002000
ENDCHAR
STARTCHAR percent
ENCODING 37
SWIDTH 450 0
DWIDTH 9 0
BBX 9 16 0 0
BITMAP
000800
001800
282400
A23000
916000
989000
64C000
00C000
018600
024A40
020980
020A40
020600
050000
050000
040000
ENDCHAR
STARTCHAR ampersand
ENCODING 38
SWIDTH 356 0
DWIDTH 7 0
BBX 7 9 0 2
BITMAP
0140
0240
0240
16B4
5BD0
8380
9A80
6180
0140
ENDCHAR
STARTCHAR quotesingle
ENCODING 39
SWIDTH 155 0
DWIDTH 3 0
BBX 2 6 0 7
BITMAP
10
70
70
30
30
20
ENDCHAR
STARTCHAR parenleft
ENCODING 40
SWIDTH 291 0
DWIDTH 6 0
BBX 6 17 0 0
BITMAP
0040
00D0
0240
0600
0D00
1800
2400
3000
6000
9000
9000
9000
5000
6000
2400
1800
0640
ENDCHAR
STARTCHAR parenright
ENCODING 41
SWIDTH 241 0
DWIDTH 5 0
BBX 5 15 0 0
BITMAP
6000
2400
0C00
0600
0300
0200
0240
0240
0140
0240
0300
0600
0900
0C00
1400
ENDCHAR
STARTCHAR asterisk
ENCODING 42
SWIDTH 481 0
DWIDTH 10 0
BBX 9 10 0 1
BITMAP
014000
024C00
026400
6AE680
07F900
7FF400
078A00
1D8100
248000
004000
ENDCHAR
STARTCHAR plus
ENCODING 43
SWIDTH 466 0
DWIDTH 9 0
BBX 9 9 0 2
BITMAP
014000
024000
024000
024680
02E900
7B8000
028000
018000
004000
ENDCHAR
STARTCHAR comma
ENCODING 44
SWIDTH 112 0
DWIDTH 2 0
BBX 2 5 0 -2
BITMAP
10
70
70
60
60
ENDCHAR
STARTCHAR hyphen
ENCODING 45
SWIDTH 399 0
DWIDTH 8 0
BBX 8 4 0 3
BITMAP
0005
01B9
6E40
5000
ENDCHAR
STARTCHAR period
ENCODING 46
SWIDTH 128 0
DWIDTH 3 0
BBX 2 2 0 0
BITMAP
10
70
ENDCHAR
STARTCHAR slash
ENCODING 47
SWIDTH 306 0
DWIDTH 6 0
BBX 6 16 0 -2
BITMAP
0050
0080
00C0
0180
0240
0300
0600
0900
0C00
1800
2400
2000
2000
5000
8000
4000
ENDCHAR
STARTCHAR zero
ENCODING 48
SWIDTH 308 0
DWIDTH 6 0
BBX 6 11 0 0
BITMAP
0640
1880
2090
2050
6050
6060
6050
2050
2080
1580
0F40
ENDCHAR
STARTCHAR one
ENCODING 49
SWIDTH 112 0
DWIDTH 2 0
BBX 2 12 0 0
BITMAP
50
50
50
50
60
60
60
60
60
60
60
20
ENDCHAR
STARTCHAR two
ENCODING 50
SWIDTH 512 0
DWIDTH 10 0
BBX 10 12 0 0
BITMAP
014000
0BA000
283000
603000
003000
006000
009000
00C000
018000
0346D0
07B900
0A4000
ENDCHAR
STARTCHAR three
ENCODING 51
SWIDTH 461 0
DWIDTH 9 0
BBX 9 14 0 0
BITMAP
01A000
1E7400
A02000
006000
01C000
07A400
0F9640
180180
000180
000240
000A00
002800
01E000
024000
ENDCHAR
STARTCHAR four
ENCODING 52
SWIDTH 503 0
DWIDTH 10 0
BBX 10 16 0 0
BITMAP
000400
001C00
003C00
007C00
00DC00
028C00
030C00
090C00
181EE0
7AAD00
940C00
000C00
000C00
000C00
000C00
000800
ENDCHAR
STARTCHAR five
ENCODING 53
SWIDTH 478 0
DWIDTH 10 0
BBX 9 14 0 0
BITMAP
100680
7AA540
BD0000
300000
300000
706400
729C00
790800
300C00
001800
003400
00A000
018000
020000
ENDCHAR
STARTCHAR six
ENCODING 54
SWIDTH 375 0
DWIDTH 8 0
BBX 7 16 0 0
BITMAP
0D00
0C00
1800
1800
2400
2000
3000
2000
6068
61D8
9348
5614
6820
7860
39C0
1F40
ENDCHAR
STARTCHAR seven
ENCODING 55
SWIDTH 458 0
DWIDTH 9 0
BBX 9 15 0 0
BITMAP
005A40
6FEB40
100700
000900
000C00
001800
001800
002400
002000
003000
003000
003000
003000
003400
002400
ENDCHAR
STARTCHAR eight
ENCODING 56
SWIDTH 333 0
DWIDTH 7 0
BBX 6 14 0 0
BITMAP
06D0
1AE0
3160
6020
9060
6090
3080
1F40
0740
0680
0850
1820
1860
0F80
ENDCHAR
STARTCHAR nine
ENCODING 57
SWIDTH 475 0
DWIDTH 10 0
BBX 9 14 0 0
BITMAP
005400
02EA00
0A0F00
182E40
307240
61D240
974240
BD0140
000140
000180
000180
000180
000180
000180
ENDCHAR
STARTCHAR colon
ENCODING 58
SWIDTH 120 0
DWIDTH 2 0
BBX 2 7 0 2
BITMAP
50
50
00
00
00
10
10
ENDCHAR
STARTCHAR semicolon
ENCODING 59
SWIDTH 121 0
DWIDTH 2 0
BBX 2 8 0 -2
BITMAP
60
00
00
10
70
70
60
60
ENDCHAR
STARTCHAR less
ENCODING 60
SWIDTH 409 0
DWIDTH 8 0
BBX 7 11 1 2
BITMAP
0008
0028
00E0
0780
1D00
A000
E000
2D00
0790
00B4
0010
ENDCHAR
STARTCHAR equal
ENCODING 61
SWIDTH 433 0
DWIDTH 9 0
BBX 8 5 0 2
BITMAP
16A9
2A50
0005
01B9
7900
ENDCHAR
STARTCHAR greater
ENCODING 62
SWIDTH 450 0
DWIDTH 9 0
BBX 7 11 1 2
BITMAP
E000
6D00
06D0
0078
0018
0034
01D0
0740
2D00
A000
4000
ENDCHAR
STARTCHAR question
ENCODING 63
SWIDTH 445 0
DWIDTH 9 0
BBX 9 19 0 0
BITMAP
001400
1BEB00
B90240
000240
000300
000900
002800
00E000
028000
060000
070000
02F400
000000
000000
000000
000000
000000
000000
018000
ENDCHAR
STARTCHAR at
ENCODING 64
SWIDTH 945 0
DWIDTH 19 0
BBX 19 18 0 0
BITMAP
00006FD000
0002902800
001D000600
0060000240
0180680180
0341990180
0906280180
1818780180
2430980240
30A2880200
70D607A900
60E8005000
6040000000
7000000034
34000001D0
2C00001A00
0B5006E400
01BFE90000
ENDCHAR
STARTCHAR A
ENCODING 65
SWIDTH 390 0
DWIDTH 8 0
BBX 10 15 0 0
BITMAP
0C0000
0E0000
1F0000
1A4000
198000
28C000
249000
246140
343E90
35B400
3E6800
701800
600C00
600900
500500
ENDCHAR
STARTCHAR B
ENCODING 66
SWIDTH 537 0
DWIDTH 11 0
BBX 11 15 0 0
BITMAP
001400
42EA00
7D0600
340C00
302400
30A6A0
26E434
2F4020
1D0090
180280
080A00
0C2C00
0C7000
098000
040000
ENDCHAR
STARTCHAR C
ENCODING 67
SWIDTH 487 0
DWIDTH 10 0
BBX 9 15 0 0
BITMAP
006000
02AC00
060400
090000
0C0000
180000
240000
300000
600000
600080
6001C0
600340
600900
347400
1F9000
ENDCHAR
STARTCHAR D
ENCODING 68
SWIDTH 554 0
DWIDTH 11 0
BBX 11 15 0 0
BITMAP
080000
0EA900
7D56E0
5C0024
0C0018
0C0014
090020
090060
0900D0
090280
090A00
052C00
057400
01D000
024000
ENDCHAR
STARTCHAR E
ENCODING 69
SWIDTH 474 0
DWIDTH 10 0
BBX 9 15 0 0
BITMAP
000500
71B800
3B8000
380000
300000
240000
241800
25D000
2E0000
280000
2801C0
280A00
287400
2F8000
190000
ENDCHAR
STARTCHAR F
ENCODING 70
SWIDTH 428 0
DWIDTH 9 0
BBX 9 14 0 0
BITMAP
100A40
60B800
7B4000
740000
700000
700000
700600
702800
72D000
7D0000
340000
300000
300000
200000
ENDCHAR
STARTCHAR G
ENCODING 71
SWIDTH 591 0
DWIDTH 12 0
BBX 12 15 0 -2
BITMAP
001B40
006400
018000
030000
090000
0C01BD
2406B4
300070
6000F0
6002F0
A00A70
7AB870
1A9070
000070
000030
ENDCHAR
STARTCHAR H
ENCODING 72
SWIDTH 424 0
DWIDTH 9 0
BBX 8 13 0 0
BITMAP
6018
600C
600C
600C
600C
602D
70A9
3B49
3806
3006
3006
3006
3002
ENDCHAR
STARTCHAR I
ENCODING 73
SWIDTH 153 0
DWIDTH 3 0
BBX 2 15 1 0
BITMAP
80
90
90
90
90
90
90
90
90
90
90
90
90
50
50
ENDCHAR
STARTCHAR J
ENCODING 74
SWIDTH 371 0
DWIDTH 7 0
BBX 7 16 0 -2
BITMAP
0060
0060
0030
0030
0034
0024
0024
0028
0018
0018
0018
4018
9018
2018
0AA0
0140
ENDCHAR
STARTCHAR K
ENCODING 75
SWIDTH 524 0
DWIDTH 10 0
BBX 11 14 0 0
BITMAP
100000
600100
300D00
302800
307000
24D000
268000
2B0000
2D0000
1C0000
1FAAA4
1D5550
0C0000
080000
ENDCHAR
STARTCHAR L
ENCODING 76
SWIDTH 537 0
DWIDTH 11 0
BBX 11 13 0 0
BITMAP
100000
700000
700000
700000
700000
700000
700000
340000
340014
3401E4
341E00
3AE000
3E0000
ENDCHAR
STARTCHAR M
ENCODING 77
SWIDTH 682 0
DWIDTH 14 0
BBX 13 15 0 0
BITMAP
78000D00
7D000D00
37001A00
22402600
21C02600
20905200
20708200
24248300
241D4300
240B0200
28050240
28000240
28000280
280001C0
18000180
ENDCHAR
STARTCHAR N
ENCODING 78
SWIDTH 541 0
DWIDTH 11 0
BBX 10 16 0 0
BITMAP
000040
0000C0
0000D0
600090
780090
7D0090
370090
328090
30A090
2434A0
241CA0
2806A0
1802E0
1800B0
180070
080000
ENDCHAR
STARTCHAR O
ENCODING 79
SWIDTH 382 0
DWIDTH 8 0
BBX 8 14 0 0
BITMAP
0050
07F4
0D1C
180C
2409
3009
6009
600D
900C
9018
9028
6070
35D0
1E40
ENDCHAR
STARTCHAR P
ENCODING 80
SWIDTH 508 0
DWIDTH 10 0
BBX 10 16 0 0
BITMAP
09BF40
2E41D0
780060
280090
2801C0
240B00
287800
2F9000
2D0000
180000
180000
180000
180000
180000
080000
080000
ENDCHAR
STARTCHAR Q
ENCODING 81
SWIDTH 512 0
DWIDTH 10 0
BBX 10 15 0 0
BITMAP
07BE00
0F4240
1C0080
240080
300080
300080
600090
601480
601C80
600D80
600780
300340
240380
1D19D0
06E450
ENDCHAR
STARTCHAR R
ENCODING 82
SWIDTH 503 0
DWIDTH 10 0
BBX 10 16 0 0
BITMAP
601400
72FB80
7D00E0
7401C0
700600
706400
628000
7D0000
740000
7E4000
62E400
602E40
6001E0
600010
600000
200000
ENDCHAR
STARTCHAR S
ENCODING 83
SWIDTH 541 0
DWIDTH 11 0
BBX 11 15 0 0
BITMAP
000600
00AB00
064000
1C0000
340000
A00000
900000
900000
290000
06AA90
000074
000070
000780
02B800
054000
ENDCHAR
STARTCHAR T
ENCODING 84
SWIDTH 595 0
DWIDTH 12 0
BBX 14 14 0 0
BITMAP
001EABD0
6BEE5400
540A0000
000A0000
00060000
00060000
00060000
00030000
00030000
00034000
00034000
00024000
00028000
00018000
ENDCHAR
STARTCHAR U
ENCODING 85
SWIDTH 450 0
DWIDTH 9 0
BBX 9 15 0 -2
BITMAP
000100
600340
700340
700740
700740
700B40
700B00
700F00
701E00
302A40
303240
299240
0A4180
000180
000180
ENDCHAR
STARTCHAR V
ENCODING 86
SWIDTH 524 0
DWIDTH 10 0
BBX 10 15 0 0
BITMAP
000010
000070
000060
500090
6000D0
3400C0
180180
0D0280
0A0340
034300
028700
00CA00
00A900
007D00
001C00
ENDCHAR
STARTCHAR W
ENCODING 87
SWIDTH 878 0
DWIDTH 18 0
BBX 17 15 0 0
BITMAP
0000000080
0000000180
1000100240
B000B00300
7400B40300
2400A80600
18015C0900
0C024D0C00
09030A0C00
0A06031800
0709026400
034C00F400
029800B000
01E4002000
00F0000000
ENDCHAR
STARTCHAR X
ENCODING 88
SWIDTH 461 0
DWIDTH 9 0
BBX 9 14 0 0
BITMAP
000180
200200
280600
0C0C00
0A2800
037000
02D000
01C000
02E000
063000
0C1800
240C00
700600
000300
ENDCHAR
STARTCHAR Y
ENCODING 89
SWIDTH 483 0
DWIDTH 10 0
BBX 9 16 0 0
BITMAP
000040
000080
0000C0
400180
600240
280300
0D0600
074900
01DC00
007800
003400
007000
006000
009000
00C000
018000
ENDCHAR
STARTCHAR Z
ENCODING 90
SWIDTH 670 0
DWIDTH 13 0
BBX 13 14 0 0
BITMAP
2AAAA800
15557C00
00007400
0001D000
00038000
000A0000
002C0000
00740000
00D00000
03800000
0A000000
1C000000
79555A80
7FAAAA40
ENDCHAR
STARTCHAR bracketleft
ENCODING 91
SWIDTH 470 0
DWIDTH 9 0
BBX 9 25 0 -2
BITMAP
001500
7AA900
600000
600000
600000
600000
200000
300000
300000
300000
200000
240000
240000
140000
180000
180000
180000
080000
080000
080000
0C0000
0C0000
0C0040
0EAE40
0E9000
ENDCHAR
STARTCHAR backslash
ENCODING 92
SWIDTH 554 0
DWIDTH 11 0
BBX 11 20 0 0
BITMAP
A00000
300000
180000
080000
060000
030000
028000
00C000
00A000
003000
002400
001C00
000900
000700
000340
0001C0
0000D0
0000B0
000034
000028
ENDCHAR
STARTCHAR bracketright
ENCODING 93
SWIDTH 512 0
DWIDTH 10 0
BBX 10 26 0 -2
BITMAP
055540
BEAAC0
0001C0
000180
000180
000180
000180
000180
000180
000180
000180
0001C0
0001C0
0000C0
0000C0
0000C0
0000C0
0000C0
0000D0
000090
000090
000090
0000A0
0000A0
0006E0
00BA40
ENDCHAR
STARTCHAR asciicircum
ENCODING 94
SWIDTH 390 0
DWIDTH 8 0
BBX 8 6 0 13
BITMAP
0200
0780
0CA0
1424
200D
5000
ENDCHAR
STARTCHAR underscore
ENCODING 95
SWIDTH 612 0
DWIDTH 12 0
BBX 12 4 0 0
BITMAP
000005
0016FD
16FA50
B94000
ENDCHAR
STARTCHAR grave
ENCODING 96
SWIDTH 155 0
DWIDTH 3 0
BBX 3 3 0 12
BITMAP
40
70
24
ENDCHAR
STARTCHAR a
ENCODING 97
SWIDTH 366 0
DWIDTH 7 0
BBX 7 11 0 0
BITMAP
01A0
03B4
0A30
1C74
28B4
70F4
A298
9718
CA18
B808
6008
ENDCHAR
STARTCHAR b
ENCODING 98
SWIDTH 442 0
DWIDTH 9 0
BBX 8 17 0 0
BITMAP
2000
3400
3400
3000
3000
3000
3014
30BE
3747
3D03
7803
7007
600E
6028
61E0
6B80
3800
ENDCHAR
STARTCHAR c
ENCODING 99
SWIDTH 390 0
DWIDTH 8 0
BBX 7 12 0 0
BITMAP
0640
1D80
24C0
3040
7000
6000
6000
5008
600C
6018
2474
1F80
ENDCHAR
STARTCHAR d
ENCODING 100
SWIDTH 316 0
DWIDTH 6 0
BBX 6 20 0 -2
BITMAP
0050
0090
0090
0050
0050
0050
0050
0150
1FD0
3890
7060
A0A0
90A0
80E0
81E0
8260
9A60
6860
0060
0010
ENDCHAR
STARTCHAR e
ENCODING 101
SWIDTH 461 0
DWIDTH 9 0
BBX 9 11 0 0
BITMAP
019000
07A800
0D1C00
187400
3F8000
780000
B00280
300700
301D00
247400
1F8000
ENDCHAR
STARTCHAR f
ENCODING 102
SWIDTH 345 0
DWIDTH 7 0
BBX 7 18 0 0
BITMAP
0280
0BD0
0A60
0D00
0D00
0C00
0C00
0C00
0CB4
1F90
7C00
0C00
0C00
0D00
0900
0900
0900
0900
ENDCHAR
STARTCHAR g
ENCODING 103
SWIDTH 437 0
DWIDTH 9 0
BBX 8 20 0 -9
BITMAP
00B8
029D
092D
183A
246A
30DA
618A
9347
AA07
2807
0007
0007
0007
0006
0009
000C
0018
0074
06D0
0540
ENDCHAR
STARTCHAR h
ENCODING 104
SWIDTH 466 0
DWIDTH 9 0
BBX 9 15 0 0
BITMAP
500000
600000
600000
600000
600000
602A00
60BA80
62D180
738180
770180
7A0180
7C0180
780180
7001C0
5001C0
ENDCHAR
STARTCHAR i
ENCODING 105
SWIDTH 132 0
DWIDTH 3 0
BBX 2 15 0 0
BITMAP
50
00
00
10
60
60
60
60
60
60
60
60
60
60
20
ENDCHAR
STARTCHAR j
ENCODING 106
SWIDTH 112 0
DWIDTH 2 0
BBX 6 23 -4 -7
BITMAP
0050
0000
0000
0000
0000
0000
0060
0060
0060
0060
0060
0060
0060
0070
0030
0030
0030
0030
0030
0030
6060
19D0
0680
ENDCHAR
STARTCHAR k
ENCODING 107
SWIDTH 428 0
DWIDTH 9 0
BBX 8 17 0 -1
BITMAP
1000
3000
3400
3400
3402
300A
301D
3038
70B0
71D0
7740
7D00
7800
7B40
61BA
6006
5000
ENDCHAR
STARTCHAR l
ENCODING 108
SWIDTH 137 0
DWIDTH 3 0
BBX 3 17 0 0
BITMAP
50
60
60
60
20
20
30
30
30
30
30
30
30
30
30
34
20
ENDCHAR
STARTCHAR m
ENCODING 109
SWIDTH 579 0
DWIDTH 12 0
BBX 11 12 0 0
BITMAP
600000
600000
7181E0
33D2F0
37A370
366634
393D34
3C3C24
3C2824
381428
28001C
240004
ENDCHAR
STARTCHAR n
ENCODING 110
SWIDTH 483 0
DWIDTH 10 0
BBX 9 12 0 0
BITMAP
101900
607F00
60E240
71C240
724180
330180
360180
3A01C0
3D01C0
3C00C0
2800C0
280040
ENDCHAR
STARTCHAR o
ENCODING 111
SWIDTH 266 0
DWIDTH 5 0
BBX 5 11 0 0
BITMAP
1D00
3A40
2080
60C0
60C0
90C0
91C0
9180
9240
6A00
3800
ENDCHAR
STARTCHAR p
ENCODING 112
SWIDTH 482 0
DWIDTH 10 0
BBX 10 17 0 -6
BITMAP
100000
606E80
6680D0
7D01C0
700240
600A00
607800
62D000
7F4000
780000
600000
600000
600000
600000
600000
600000
100000
ENDCHAR
STARTCHAR q
ENCODING 113
SWIDTH 408 0
DWIDTH 8 0
BBX 9 16 0 -6
BITMAP
001000
02E400
0A1800
182800
242C00
602C00
606900
90D900
7B4600
040600
000600
000300
000300
000340
000240
000140
ENDCHAR
STARTCHAR r
ENCODING 114
SWIDTH 396 0
DWIDTH 8 0
BBX 8 10 0 0
BITMAP
50BD
6280
6700
3600
3A00
2A00
2D00
1D00
1D00
0C00
ENDCHAR
STARTCHAR s
ENCODING 115
SWIDTH 366 0
DWIDTH 7 0
BBX 7 11 0 -1
BITMAP
02F0
1D00
3400
6000
6064
7BAC
140C
0034
01E0
0B40
0500
ENDCHAR
STARTCHAR t
ENCODING 116
SWIDTH 268 0
DWIDTH 5 0
BBX 7 16 -1 -1
BITMAP
0900
0900
0900
0900
0AB4
2F80
BD00
0D00
0D00
0900
0900
0900
0900
0900
0A00
0100
ENDCHAR
STARTCHAR u
ENCODING 117
SWIDTH 387 0
DWIDTH 8 0
BBX 7 11 0 -1
BITMAP
5014
6024
6024
6024
6024
7034
3074
30F8
26D8
1F0C
0004
ENDCHAR
STARTCHAR v
ENCODING 118
SWIDTH 354 0
DWIDTH 7 0
BBX 7 11 0 0
BITMAP
0024
0028
4028
A028
3424
1C24
0D34
0734
02F4
00F4
0074
ENDCHAR
STARTCHAR w
ENCODING 119
SWIDTH 566 0
DWIDTH 11 0
BBX 11 10 0 0
BITMAP
60B024
70B424
249C24
18D624
0CD364
0AC1A4
07C0B8
03C038
02C018
008000
ENDCHAR
STARTCHAR x
ENCODING 120
SWIDTH 454 0
DWIDTH 9 0
BBX 9 14 0 -2
BITMAP
007000
007000
006000
B0A000
289000
0AD000
02D000
02E000
02A800
034A00
070280
060000
0A0000
040000
ENDCHAR
STARTCHAR y
ENCODING 121
SWIDTH 363 0
DWIDTH 7 0
BBX 7 19 0 -8
BITMAP
0004
000C
A00C
3418
1C18
0D18
0718
0298
00F8
0078
0028
0028
0024
0024
0024
0024
0030
0030
0010
ENDCHAR
STARTCHAR z
ENCODING 122
SWIDTH 618 0
DWIDTH 12 0
BBX 13 10 0 0
BITMAP
001B0000
06EA0000
790D0000
001C0000
00340000
00600000
00D00000
01C01640
029BFE40
02E94000
ENDCHAR
STARTCHAR braceleft
ENCODING 123
SWIDTH 348 0
DWIDTH 7 0
BBX 7 19 0 -2
BITMAP
06E4
0D04
1800
1800
0800
0900
0700
7900
2400
0D00
6D00
B400
9000
8000
9000
6000
3800
1F40
0190
ENDCHAR
STARTCHAR bar
ENCODING 124
SWIDTH 137 0
DWIDTH 3 0
BBX 3 17 0 0
BITMAP
50
60
60
60
20
20
30
30
30
30
30
30
30
30
30
34
20
ENDCHAR
STARTCHAR braceright
ENCODING 125
SWIDTH 348 0
DWIDTH 7 0
BBX 7 19 0 -2
BITMAP
1900
9740
0180
00C0
0080
0240
0300
0790
00A0
0180
0340
01F0
0070
0024
0020
0030
00A0
02D0
2F40
ENDCHAR
STARTCHAR asciitilde
ENCODING 126
SWIDTH 458 0
DWIDTH 9 0
BBX 8 4 1 11
BITMAP
1400
AE0D
C368
41E0
ENDCHAR
STARTCHAR nonbreakingspace
ENCODING 160
SWIDTH 450 0
DWIDTH 9 0
BBX 1 1 0 0
BITMAP
00
ENDCHAR
STARTCHAR exclamdown
ENCODING 161
SWIDTH 137 0
DWIDTH 3 0
BBX 3 13 0 -3
BITMAP
14
00
00
00
00
50
60
50
50
50
50
50
50
ENDCHAR
STARTCHAR cent
ENCODING 162
SWIDTH 394 0
DWIDTH 8 0
BBX 7 15 0 -1
BITMAP
0300
0300
0740
1EE0
2670
3140
7140
6140
6140
5148
614C
6158
25B4
1F90
0180
ENDCHAR
STARTCHAR sterling
ENCODING 163
SWIDTH 539 0
DWIDTH 11 0
BBX 10 14 0 0
BITMAP
000100
001ED0
00A010
01C000
024000
076800
BF9000
090000
090000
090000
0D0000
0C0500
0DBAE0
0B4050
ENDCHAR
STARTCHAR currency
ENCODING 164
SWIDTH 500 0
DWIDTH 10 0
BBX 8 12 1 1
BITMAP
000D
255C
2FF8
1D30
1824
1824
1824
1870
3EF0
A6B4
C014
4000
ENDCHAR
STARTCHAR yen
ENCODING 165
SWIDTH 478 0
DWIDTH 10 0
BBX 8 16 1 0
BITMAP
200D
342C
2C34
1DB0
0BD0
07C0
0280
0240
06A9
7FE4
0240
ABE8
5240
0240
0240
0240
ENDCHAR
STARTCHAR brokenbar
ENCODING 166
SWIDTH 137 0
DWIDTH 3 0
BBX 3 17 0 0
BITMAP
50
60
60
60
20
30
10
00
30
20
20
20
20
30
34
34
20
ENDCHAR
STARTCHAR section
ENCODING 167
SWIDTH 366 0
DWIDTH 7 0
BBX 7 16 0 -1
BITMAP
02A0
1D50
3400
6000
9010
AAF8
2D1C
3424
60A0
62E4
7FAC
140C
0034
01E0
0B40
0500
ENDCHAR
STARTCHAR dieresis
ENCODING 168
SWIDTH 306 0
DWIDTH 6 0
BBX 5 2 1 13
BITMAP
A340
4100
ENDCHAR
STARTCHAR copyright
ENCODING 169
SWIDTH 485 0
DWIDTH 10 0
BBX 10 14 0 0
BITMAP
005400
02EA00
074280
0D51C0
29B4D0
3354D0
6300D0
6601D0
9607C0
935F80
91A700
600D00
35B400
1F9000
ENDCHAR
STARTCHAR ordfeminine
ENCODING 170
SWIDTH 227 0
DWIDTH 5 0
BBX 4 5 0 3
BITMAP
1A
26
9A
96
91
ENDCHAR
STARTCHAR guillemotleft
ENCODING 171
SWIDTH 652 0
DWIDTH 13 0
BBX 11 11 1 2
BITMAP
000818
002874
00E2D0
078B40
1D3800
A0D000
E0E000
2D2D00
079790
00B4B4
001000
ENDCHAR
STARTCHAR logicalnot
ENCODING 172
SWIDTH 539 0
DWIDTH 11 0
BBX 9 6 1 2
BITMAP
6ABF80
154080
0000C0
0000C0
0000C0
000040
ENDCHAR
STARTCHAR uni00AD
ENCODING 173
SWIDTH 399 0
DWIDTH 8 0
BBX 8 4 0 3
BITMAP
0005
01B9
6E40
5000
ENDCHAR
STARTCHAR registered
ENCODING 174
SWIDTH 382 0
DWIDTH 8 0
BBX 10 14 0 0
BITMAP
001000
01FD00
065B00
080180
26A9C0
370990
626890
63D090
92A0D0
961EC0
920380
600B00
396C00
1F9000
ENDCHAR
STARTCHAR macron
ENCODING 175
SWIDTH 399 0
DWIDTH 8 0
BBX 8 2 0 13
BITMAP
16A9
6954
ENDCHAR
STARTCHAR degree
ENCODING 176
SWIDTH 201 0
DWIDTH 4 0
BBX 4 4 0 7
BITMAP
29
56
69
14
ENDCHAR
STARTCHAR plusminus
ENCODING 177
SWIDTH 466 0
DWIDTH 9 0
BBX 8 10 0 1
BITMAP
0140
0240
0240
0245
02E9
7B80
0280
0180
16FD
2540
ENDCHAR
STARTCHAR twosuperior
ENCODING 178
SWIDTH 318 0
DWIDTH 6 0
BBX 6 7 0 3
BITMAP
0400
2600
4200
0100
0400
0850
1900
ENDCHAR
STARTCHAR threesuperior
ENCODING 179
SWIDTH 280 0
DWIDTH 6 0
BBX 6 8 0 3
BITMAP
1A00
5100
0800
2940
1050
0080
0240
0800
ENDCHAR
STARTCHAR acute
ENCODING 180
SWIDTH 155 0
DWIDTH 3 0
BBX 3 3 0 12
BITMAP
04
28
A0
ENDCHAR
STARTCHAR mu
ENCODING 181
SWIDTH 387 0
DWIDTH 8 0
BBX 7 14 0 -3
BITMAP
5014
6028
6028
6028
7028
7038
7078
70F8
76D8
7E04
5000
5000
5000
4000
ENDCHAR
STARTCHAR paragraph
ENCODING 182
SWIDTH 447 0
DWIDTH 9 0
BBX 8 13 0 0
BITMAP
06A9
2FFE
7FF2
7FF2
7E72
0033
0037
0037
0027
0027
0027
0026
0015
ENDCHAR
STARTCHAR periodcentered
ENCODING 183
SWIDTH 128 0
DWIDTH 3 0
BBX 2 2 0 4
BITMAP
60
50
ENDCHAR
STARTCHAR cedilla
ENCODING 184
SWIDTH 322 0
DWIDTH 6 0
BBX 5 7 1 -6
BITMAP
4000
9000
A000
7E00
0780
0780
BE40
ENDCHAR
STARTCHAR onesuperior
ENCODING 185
SWIDTH 112 0
DWIDTH 2 0
BBX 2 7 0 3
BITMAP
50
50
50
50
50
60
20
ENDCHAR
STARTCHAR ordmasculine
ENCODING 186
SWIDTH 212 0
DWIDTH 4 0
BBX 4 6 0 3
BITMAP
14
66
92
93
96
68
ENDCHAR
STARTCHAR guillemotright
ENCODING 187
SWIDTH 625 0
DWIDTH 13 0
BBX 11 12 1 2
BITMAP
004000
E1E000
6D6D00
06D6D0
007874
001824
0034A0
01D280
075E00
2D7800
A1D000
400000
ENDCHAR
STARTCHAR onequarter
ENCODING 188
SWIDTH 678 0
DWIDTH 14 0
BBX 13 16 0 -2
BITMAP
00300000
00600000
00900000
50801000
50807400
5180F400
5242A400
53062400
56182540
697AB900
2C502400
18002400
24002400
20002400
20000000
10000000
ENDCHAR
STARTCHAR onehalf
ENCODING 189
SWIDTH 693 0
DWIDTH 14 0
BBX 11 16 1 -2
BITMAP
003000
006000
009000
80C000
808000
814500
826B00
839200
860200
890200
8C0600
180804
2419A4
302900
600000
100000
ENDCHAR
STARTCHAR threequarters
ENCODING 190
SWIDTH 868 0
DWIDTH 17 0
BBX 13 16 1 -2
BITMAP
01002400
6A403000
81406C00
06006C00
0D40BC00
3964E800
1015C800
00278840
00976E40
028F4800
09090800
000C0800
00180800
00240800
00200000
00100000
ENDCHAR
STARTCHAR questiondown
ENCODING 191
SWIDTH 541 0
DWIDTH 11 0
BBX 9 17 1 -1
BITMAP
006000
000000
000000
000000
000000
000000
01A000
016C00
001C00
007400
01D000
074000
1C0000
340000
600180
755F40
1A9400
ENDCHAR
STARTCHAR Agrave
ENCODING 192
SWIDTH 390 0
DWIDTH 8 0
BBX 9 19 1 -1
BITMAP
100000
1C0000
090000
000000
240000
3C0000
3D0000
360000
730000
624000
618000
A0C140
A0BA80
A2E000
B97000
D03000
C02400
C01800
400800
ENDCHAR
STARTCHAR Aacute
ENCODING 193
SWIDTH 390 0
DWIDTH 8 0
BBX 10 19 0 0
BITMAP
010000
0A0000
280000
000000
0C0000
0E0000
1F0000
1A4000
198000
28C000
249000
246140
343E90
35B400
3E6800
701800
600C00
600900
500500
ENDCHAR
STARTCHAR Acircumflex
ENCODING 194
SWIDTH 390 0
DWIDTH 8 0
BBX 11 21 -1 0
BITMAP
020000
0B8000
0C9000
242400
600D00
500000
030000
038000
07C000
069000
066000
0A3000
092400
091850
0D0FA4
0D6D00
0F9A00
1C0600
180300
180240
140140
ENDCHAR
STARTCHAR Atilde
ENCODING 195
SWIDTH 390 0
DWIDTH 8 0
BBX 10 21 0 0
BITMAP
040000
AE0D00
C36800
41E000
000000
000000
0C0000
0E0000
1F0000
1A4000
198000
28C000
249000
246140
343E90
35B400
3E6800
701800
600C00
600900
500500
ENDCHAR
STARTCHAR Adieresis
ENCODING 196
SWIDTH 390 0
DWIDTH 8 0
BBX 10 18 0 0
BITMAP
25C000
104000
000000
0C0000
0E0000
1F0000
1A4000
198000
28C000
249000
246140
343E90
35B400
3E6800
701800
600C00
600900
500500
ENDCHAR
STARTCHAR Aring
ENCODING 197
SWIDTH 390 0
DWIDTH 8 0
BBX 10 18 0 0
BITMAP
1A0000
A68000
928000
6E0000
0E0000
1F0000
1A4000
198000
28C000
249000
246140
343E90
35B400
3E6800
701800
600C00
600900
500500
ENDCHAR
STARTCHAR AE
ENCODING 198
SWIDTH 708 0
DWIDTH 14 0
BBX 14 15 0 0
BITMAP
0C000140
0E286D00
1F1FD000
1A5D0000
198C0000
28CC0100
249C1900
246DA000
343F4000
35BD0000
3E6D00A0
701D0740
600D2800
600BD000
50050000
ENDCHAR
STARTCHAR Ccedilla
ENCODING 199
SWIDTH 487 0
DWIDTH 10 0
BBX 9 22 0 -7
BITMAP
006000
02AC00
060400
090000
0C0000
180000
240000
300000
600000
600080
6001C0
600340
600900
347400
1F9000
030000
034000
02E000
006C00
000E00
02BD00
015000
ENDCHAR
STARTCHAR Egrave
ENCODING 200
SWIDTH 474 0
DWIDTH 10 0
BBX 9 18 0 0
BITMAP
050000
070000
018000
000500
71B800
3B8000
380000
300000
240000
241800
25D000
2E0000
280000
2801C0
280A00
287400
2F8000
190000
ENDCHAR
STARTCHAR Eacute
ENCODING 201
SWIDTH 474 0
DWIDTH 10 0
BBX 9 18 0 0
BITMAP
001000
00A000
018000
000500
71B800
3B8000
380000
300000
240000
241800
25D000
2E0000
280000
2801C0
280A00
287400
2F8000
190000
ENDCHAR
STARTCHAR Ecircumflex
ENCODING 202
SWIDTH 474 0
DWIDTH 10 0
BBX 9 21 0 0
BITMAP
008000
01E000
032800
090900
080340
140000
000500
71B800
3B8000
380000
300000
240000
241800
25D000
2E0000
280000
2801C0
280A00
287400
2F8000
190000
ENDCHAR
STARTCHAR Edieresis
ENCODING 203
SWIDTH 474 0
DWIDTH 10 0
BBX 9 18 0 0
BITMAP
062400
011000
000000
000500
71B800
3B8000
380000
300000
240000
241800
25D000
2E0000
280000
2801C0
280A00
287400
2F8000
190000
ENDCHAR
STARTCHAR Igrave
ENCODING 204
SWIDTH 153 0
DWIDTH 3 0
BBX 3 19 0 0
BITMAP
40
70
24
00
20
24
24
24
24
24
24
24
24
24
24
24
24
14
14
ENDCHAR
STARTCHAR Iacute
ENCODING 205
SWIDTH 153 0
DWIDTH 3 0
BBX 3 19 0 0
BITMAP
04
2C
74
00
20
24
24
24
24
24
24
24
24
24
24
24
24
14
14
ENDCHAR
STARTCHAR Icircumflex
ENCODING 206
SWIDTH 153 0
DWIDTH 3 0
BBX 8 21 -2 0
BITMAP
0200
0780
0CA0
2424
200D
5000
0200
0240
0240
0240
0240
0240
0240
0240
0240
0240
0240
0240
0240
0140
0140
ENDCHAR
STARTCHAR Idieresis
ENCODING 207
SWIDTH 153 0
DWIDTH 3 0
BBX 4 18 0 0
BITMAP
C6
44
00
20
24
24
24
24
24
24
24
24
24
24
24
24
14
14
ENDCHAR
STARTCHAR Eth
ENCODING 208
SWIDTH 554 0
DWIDTH 11 0
BBX 11 15 0 0
BITMAP
080000
0EA900
7D56E0
5C0024
0C0018
0C0014
0C0020
090060
0900D0
095280
6FDA00
0A2C00
057400
01D000
024000
ENDCHAR
STARTCHAR Ntilde
ENCODING 209
SWIDTH 541 0
DWIDTH 11 0
BBX 10 19 0 0
BITMAP
010000
2E8340
30DB00
107840
0000C0
0000D0
600090
780090
7D0090
370090
328090
30A090
2434A0
241CA0
2806A0
1802E0
1800B0
180070
080000
ENDCHAR
STARTCHAR Ograve
ENCODING 210
SWIDTH 382 0
DWIDTH 8 0
BBX 8 18 0 0
BITMAP
0040
00A0
0024
0000
0050
07F4
0D1C
180C
2409
3009
6009
600D
900C
9018
9028
6070
35D0
1E40
ENDCHAR
STARTCHAR Oacute
ENCODING 211
SWIDTH 382 0
DWIDTH 8 0
BBX 8 18 0 0
BITMAP
0040
0280
0600
0000
0050
07F4
0D1C
180C
2409
3009
6009
600D
900C
9018
9028
6070
35D0
1E40
ENDCHAR
STARTCHAR Ocircumflex
ENCODING 212
SWIDTH 382 0
DWIDTH 8 0
BBX 8 19 0 0
BITMAP
0200
0B80
0C90
2424
600D
5050
07F4
0D1C
180C
2409
3009
6009
600D
900C
9018
9028
6070
35D0
1E40
ENDCHAR
STARTCHAR Otilde
ENCODING 213
SWIDTH 382 0
DWIDTH 8 0
BBX 9 18 0 0
BITMAP
010000
1EC240
34EB00
107800
005000
07F400
0D1C00
180C00
240900
300900
600900
600D00
900C00
901800
902800
607000
35D000
1E4000
ENDCHAR
STARTCHAR Odieresis
ENCODING 214
SWIDTH 382 0
DWIDTH 8 0
BBX 8 16 0 0
BITMAP
0258
0104
0050
07F4
0D1C
180C
2409
3009
6009
600D
900C
9018
9028
6070
35D0
1E40
ENDCHAR
STARTCHAR multiply
ENCODING 215
SWIDTH 454 0
DWIDTH 9 0
BBX 6 8 1 2
BITMAP
1000
2070
18D0
0B40
0F00
2580
60D0
0040
ENDCHAR
STARTCHAR Oslash
ENCODING 216
SWIDTH 382 0
DWIDTH 8 0
BBX 8 16 0 -2
BITMAP
0064
07F4
0D3C
185C
2499
30C9
6189
624D
930C
9618
9928
6C70
3DD0
2E40
2000
1000
ENDCHAR
STARTCHAR Ugrave
ENCODING 217
SWIDTH 450 0
DWIDTH 9 0
BBX 9 18 0 -2
BITMAP
020000
028000
00C000
000100
600340
700340
700740
700740
700B40
700B00
700F00
701E00
302A40
303240
299240
0A4180
000180
000180
ENDCHAR
STARTCHAR Uacute
ENCODING 218
SWIDTH 450 0
DWIDTH 9 0
BBX 9 17 0 -2
BITMAP
001000
007000
01D100
600340
700340
700740
700740
700B40
700B00
700F00
701E00
302A40
303240
299240
0A4180
000180
000180
ENDCHAR
STARTCHAR Ucircumflex
ENCODING 219
SWIDTH 450 0
DWIDTH 9 0
BBX 9 21 0 -2
BITMAP
014000
03D000
063000
0C1C00
240700
200100
000100
600340
700340
700740
700740
700B40
700B00
700F00
701E00
302A40
303240
299240
0A4180
000180
000180
ENDCHAR
STARTCHAR Udieresis
ENCODING 220
SWIDTH 450 0
DWIDTH 9 0
BBX 9 17 0 -2
BITMAP
062400
011000
000100
600340
700340
700740
700740
700B40
700B00
700F00
701E00
302A40
303240
299240
0A4180
000180
000180
ENDCHAR
STARTCHAR Yacute
ENCODING 221
SWIDTH 483 0
DWIDTH 10 0
BBX 9 19 0 0
BITMAP
000400
002800
00A000
000040
000080
0000C0
400180
600240
280300
0D0600
074900
01DC00
007800
003400
007000
006000
009000
00C000
018000
ENDCHAR
STARTCHAR Thorn
ENCODING 222
SWIDTH 398 0
DWIDTH 8 0
BBX 8 16 0 0
BITMAP
3000
3000
3000
31F8
7A5D
780A
7406
6009
601C
6070
6680
7D00
6000
6000
6000
1000
ENDCHAR
STARTCHAR germandbls
ENCODING 223
SWIDTH 537 0
DWIDTH 11 0
BBX 11 15 0 0
BITMAP
001400
42EA00
7D0600
340C00
302400
30A6A0
26E434
2F4020
1D0090
180280
080A00
0C2C00
0C7000
098000
040000
ENDCHAR
STARTCHAR agrave
ENCODING 224
SWIDTH 366 0
DWIDTH 7 0
BBX 7 15 0 0
BITMAP
0400
0A00
0240
0000
01A0
03B4
0A30
1C74
28B4
70F4
A298
9718
CA18
B808
6008
ENDCHAR
STARTCHAR aacute
ENCODING 225
SWIDTH 366 0
DWIDTH 7 0
BBX 7 15 0 0
BITMAP
0040
01C0
0340
0000
01A0
03B4
0A30
1C74
28B4
70F4
A298
9718
CA18
B808
6008
ENDCHAR
STARTCHAR acircumflex
ENCODING 226
SWIDTH 366 0
DWIDTH 7 0
BBX 7 19 0 0
BITMAP
0100
0B40
1890
2434
601C
4004
0000
0000
01A0
03B4
0A30
1C74
28B4
70F4
A298
9718
CA18
B808
6008
ENDCHAR
STARTCHAR atilde
ENCODING 227
SWIDTH 366 0
DWIDTH 7 0
BBX 8 16 0 0
BITMAP
0500
2B47
61DE
00B4
0000
01A0
03B4
0A30
1C74
28B4
70F4
A298
9718
CA18
B808
6008
ENDCHAR
STARTCHAR adieresis
ENCODING 228
SWIDTH 366 0
DWIDTH 7 0
BBX 7 15 0 0
BITMAP
1CA0
0440
0000
0000
01A0
03B4
0A30
1C74
28B4
70F4
A298
9718
CA18
B808
6008
ENDCHAR
STARTCHAR aring
ENCODING 229
SWIDTH 366 0
DWIDTH 7 0
BBX 7 14 0 0
BITMAP
0190
0D74
1C24
0BF0
03B4
0A30
1C74
28B4
70F4
A298
9718
CA18
B808
6008
ENDCHAR
STARTCHAR ae
ENCODING 230
SWIDTH 705 0
DWIDTH 14 0
BBX 14 11 0 0
BITMAP
01A0FD00
03B68700
0A370A00
1C7EB400
28BF8000
70FD0060
A2AC00D0
971C0280
CA1C0A00
B80EB400
60094000
ENDCHAR
STARTCHAR ccedilla
ENCODING 231
SWIDTH 390 0
DWIDTH 8 0
BBX 7 18 0 -6
BITMAP
0640
1D80
24C0
3040
7000
6000
6000
5008
600C
6018
2474
1F80
0C00
0E00
07D0
0074
0078
0BE0
ENDCHAR
STARTCHAR egrave
ENCODING 232
SWIDTH 461 0
DWIDTH 9 0
BBX 9 15 0 0
BITMAP
010000
028000
009000
000000
019000
07A800
0D1C00
187400
3F8000
780000
B00280
300700
301D00
247400
1F8000
ENDCHAR
STARTCHAR eacute
ENCODING 233
SWIDTH 461 0
DWIDTH 9 0
BBX 9 15 0 0
BITMAP
001000
007000
00D000
000000
019000
07A800
0D1C00
187400
3F8000
780000
B00280
300700
301D00
247400
1F8000
ENDCHAR
STARTCHAR ecircumflex
ENCODING 234
SWIDTH 461 0
DWIDTH 9 0
BBX 9 19 0 0
BITMAP
014000
02D000
062400
080C00
180700
200100
000000
000000
019000
07A800
0D1C00
187400
3F8000
780000
B00280
300700
301D00
247400
1F8000
ENDCHAR
STARTCHAR edieresis
ENCODING 235
SWIDTH 461 0
DWIDTH 9 0
BBX 9 15 0 0
BITMAP
072800
011000
000000
000000
019000
07A800
0D1C00
187400
3F8000
780000
B00280
300700
301D00
247400
1F8000
ENDCHAR
STARTCHAR igrave
ENCODING 236
SWIDTH 132 0
DWIDTH 3 0
BBX 2 16 0 0
BITMAP
C0
A0
10
00
10
60
60
60
60
60
60
60
60
60
60
20
ENDCHAR
STARTCHAR iacute
ENCODING 237
SWIDTH 132 0
DWIDTH 3 0
BBX 3 17 0 0
BITMAP
08
38
60
00
00
10
60
60
60
60
60
60
60
60
60
60
20
ENDCHAR
STARTCHAR icircumflex
ENCODING 238
SWIDTH 132 0
DWIDTH 3 0
BBX 7 19 -2 0
BITMAP
0500
0F00
2580
6060
9028
8000
0000
0100
0600
0600
0600
0600
0600
0600
0600
0600
0600
0600
0200
ENDCHAR
STARTCHAR idieresis
ENCODING 239
SWIDTH 132 0
DWIDTH 3 0
BBX 5 15 -1 0
BITMAP
6240
0100
0000
0400
1800
1800
1800
1800
1800
1800
1800
1800
1800
1800
0800
ENDCHAR
STARTCHAR eth
ENCODING 240
SWIDTH 481 0
DWIDTH 10 0
BBX 9 12 1 0
BITMAP
070000
024000
01C100
1AFE40
157000
002400
3E2400
66D800
90B400
507400
20A000
1F4000
ENDCHAR
STARTCHAR ntilde
ENCODING 241
SWIDTH 483 0
DWIDTH 10 0
BBX 9 17 0 0
BITMAP
010000
0ED180
187740
002D00
000000
101900
607F00
60E240
71C240
724180
330180
360180
3A01C0
3D01C0
3C00C0
2800C0
280040
ENDCHAR
STARTCHAR ograve
ENCODING 242
SWIDTH 266 0
DWIDTH 5 0
BBX 5 15 0 0
BITMAP
1000
2800
0900
0000
1D00
3A40
2080
60C0
60C0
90C0
91C0
9180
9240
6A00
3800
ENDCHAR
STARTCHAR oacute
ENCODING 243
SWIDTH 266 0
DWIDTH 5 0
BBX 5 15 0 0
BITMAP
0100
0700
0D00
0000
1D00
3A40
2080
60C0
60C0
90C0
91C0
9180
9240
6A00
3800
ENDCHAR
STARTCHAR ocircumflex
ENCODING 244
SWIDTH 266 0
DWIDTH 5 0
BBX 7 19 -1 0
BITMAP
0100
0B40
1890
2434
601C
4004
0000
0000
0740
0E90
0820
1830
1830
2430
2470
2460
2490
1A80
0E00
ENDCHAR
STARTCHAR otilde
ENCODING 245
SWIDTH 266 0
DWIDTH 5 0
BBX 8 16 -1 0
BITMAP
0400
3B46
61DD
00B4
0000
0740
0E90
0820
1830
1830
2430
2470
2460
2490
1A80
0E00
ENDCHAR
STARTCHAR odieresis
ENCODING 246
SWIDTH 266 0
DWIDTH 5 0
BBX 5 15 0 0
BITMAP
3280
1100
0000
0000
1D00
3A40
2080
60C0
60C0
90C0
91C0
9180
9240
6A00
3800
ENDCHAR
STARTCHAR divide
ENCODING 247
SWIDTH 345 0
DWIDTH 7 0
BBX 7 7 0 2
BITMAP
0100
0100
0550
6AA4
0000
0100
0200
ENDCHAR
STARTCHAR oslash
ENCODING 248
SWIDTH 266 0
DWIDTH 5 0
BBX 6 14 0 -2
BITMAP
0050
1EC0
3A80
2280
63C0
66C0
99C0
A9C0
B580
B240
7A00
B800
C000
4000
ENDCHAR
STARTCHAR ugrave
ENCODING 249
SWIDTH 387 0
DWIDTH 8 0
BBX 7 16 0 -1
BITMAP
0500
0700
0240
0000
0000
5014
6024
6024
6024
6024
7034
3074
30F8
26D8
1F0C
0004
ENDCHAR
STARTCHAR uacute
ENCODING 250
SWIDTH 387 0
DWIDTH 8 0
BBX 7 16 0 -1
BITMAP
0040
01D0
0280
0000
0000
5014
6024
6024
6024
6024
7034
3074
30F8
26D8
1F0C
0004
ENDCHAR
STARTCHAR ucircumflex
ENCODING 251
SWIDTH 387 0
DWIDTH 8 0
BBX 8 20 0 -1
BITMAP
0200
0B80
0CA0
2424
200D
5000
0000
0000
0000
5014
6024
6024
6024
6024
7034
3074
30F8
26D8
1F0C
0004
ENDCHAR
STARTCHAR udieresis
ENCODING 252
SWIDTH 387 0
DWIDTH 8 0
BBX 7 16 0 -1
BITMAP
0960
0410
0000
0000
0000
5014
6024
6024
6024
6024
7034
3074
30F8
26D8
1F0C
0004
ENDCHAR
STARTCHAR yacute
ENCODING 253
SWIDTH 363 0
DWIDTH 7 0
BBX 7 23 0 -8
BITMAP
0040
01C0
0340
0000
0004
000C
A00C
3418
1C18
0D18
0718
0298
00F8
0078
0028
0028
0024
0024
0024
0024
0030
0030
0010
ENDCHAR
STARTCHAR thorn
ENCODING 254
SWIDTH 439 0
DWIDTH 9 0
BBX 9 14 0 -1
BITMAP
600000
61AA00
6A0240
740300
700900
602800
20A000
378000
3D0000
300000
200000
200000
600000
100000
ENDCHAR
STARTCHAR ydieresis
ENCODING 255
SWIDTH 363 0
DWIDTH 7 0
BBX 7 23 0 -8
BITMAP
1CA0
0440
0000
0000
0004
000C
A00C
3418
1C18
0D18
0718
0298
00F8
0078
0028
0028
0024
0024
0024
0024
0030
0030
0010
ENDCHAR
STARTCHAR Amacron
ENCODING 256
SWIDTH 390 0
DWIDTH 8 0
BBX 10 18 0 0
BITMAP
56A800
A55400
000000
0C0000
0E0000
1F0000
1A4000
198000
28C000
249000
246140
343E90
35B400
3E6800
701800
600C00
600900
500500
ENDCHAR
STARTCHAR amacron
ENCODING 257
SWIDTH 366 0
DWIDTH 7 0
BBX 8 15 0 0
BITMAP
16A9
A954
0000
0000
01A0
03B4
0A30
1C74
28B4
70F4
A298
9718
CA18
B808
6008
ENDCHAR
STARTCHAR Abreve
ENCODING 258
SWIDTH 390 0
DWIDTH 8 0
BBX 10 19 0 0
BITMAP
102000
29A000
0B8000
000000
0C0000
0E0000
1F0000
1A4000
198000
28C000
249000
246140
343E90
35B400
3E6800
701800
600C00
600900
500500
ENDCHAR
STARTCHAR abreve
ENCODING 259
SWIDTH 366 0
DWIDTH 7 0
BBX 7 15 0 0
BITMAP
1414
1D70
07D0
0000
01A0
03B4
0A30
1C74
28B4
70F4
A298
9718
CA18
B808
6008
ENDCHAR
STARTCHAR Aogonek
ENCODING 260
SWIDTH 390 0
DWIDTH 8 0
BBX 10 20 0 -5
BITMAP
0C0000
0E0000
1F0000
1A4000
198000
28C000
249000
246140
343E90
35B400
3E6800
701800
600C00
600900
500500
001D00
003400
003000
003590
001B80
ENDCHAR
STARTCHAR aogonek
ENCODING 261
SWIDTH 366 0
DWIDTH 7 0
BBX 9 15 0 -4
BITMAP
01A000
03B400
0A3000
1C7400
28B400
70F400
A29800
971800
CA1800
B80800
602800
006000
009000
009180
007F40
ENDCHAR
STARTCHAR Cacute
ENCODING 262
SWIDTH 487 0
DWIDTH 10 0
BBX 9 18 0 0
BITMAP
001000
007000
00D000
006000
02AC00
060400
090000
0C0000
180000
240000
300000
600000
600080
6001C0
600340
600900
347400
1F9000
ENDCHAR
STARTCHAR cacute
ENCODING 263
SWIDTH 390 0
DWIDTH 8 0
BBX 7 17 0 0
BITMAP
0040
02C0
0700
0000
0000
0640
1D80
24C0
3040
7000
6000
6000
5008
600C
6018
2474
1F80
ENDCHAR
STARTCHAR Ccircumflex
ENCODING 264
SWIDTH 487 0
DWIDTH 10 0
BBX 9 20 0 0
BITMAP
004000
02E000
062400
090D00
180340
106000
02AC00
060400
090000
0C0000
180000
240000
300000
600000
600080
6001C0
600340
600900
347400
1F9000
ENDCHAR
STARTCHAR ccircumflex
ENCODING 265
SWIDTH 390 0
DWIDTH 8 0
BBX 8 19 0 0
BITMAP
0200
0780
0CA0
2424
200D
5000
0000
0640
1D80
24C0
3040
7000
6000
6000
5008
600C
6018
2474
1F80
ENDCHAR
STARTCHAR Cdotaccent
ENCODING 266
SWIDTH 487 0
DWIDTH 10 0
BBX 9 17 0 0
BITMAP
00D000
000000
006000
02AC00
060400
090000
0C0000
180000
240000
300000
600000
600080
6001C0
600340
600900
347400
1F9000
ENDCHAR
STARTCHAR cdotaccent
ENCODING 267
SWIDTH 390 0
DWIDTH 8 0
BBX 7 14 0 0
BITMAP
0100
0500
0640
1D80
24C0
3040
7000
6000
6000
9008
500C
6018
3474
1F80
ENDCHAR
STARTCHAR Ccaron
ENCODING 268
SWIDTH 487 0
DWIDTH 10 0
BBX 9 19 0 0
BITMAP
180200
050900
026400
008000
006000
02AC00
060400
090000
0C0000
180000
240000
300000
600000
600080
6001C0
600340
600900
347400
1F9000
ENDCHAR
STARTCHAR ccaron
ENCODING 269
SWIDTH 390 0
DWIDTH 8 0
BBX 7 16 0 0
BITMAP
6008
1424
0990
0200
0640
1D80
24C0
3040
7000
6000
6000
5008
600C
6018
2474
1F80
ENDCHAR
STARTCHAR Dcaron
ENCODING 270
SWIDTH 554 0
DWIDTH 11 0
BBX 11 19 0 0
BITMAP
060080
024240
009800
002000
080000
0EA900
7D56E0
5C0024
0C0018
0C0014
090020
090060
0900D0
090280
090A00
052C00
057400
01D000
024000
ENDCHAR
STARTCHAR Emacron
ENCODING 274
SWIDTH 474 0
DWIDTH 10 0
BBX 9 17 0 0
BITMAP
15AA00
695400
000500
71B800
3B8000
380000
300000
240000
241800
25D000
2E0000
280000
2801C0
280A00
287400
2F8000
190000
ENDCHAR
STARTCHAR emacron
ENCODING 275
SWIDTH 461 0
DWIDTH 9 0
BBX 9 15 0 0
BITMAP
15AA00
295500
000000
000000
019000
07A800
0D1C00
187400
3F8000
780000
B00280
300700
301D00
247400
1F8000
ENDCHAR
STARTCHAR Ebreve
ENCODING 276
SWIDTH 474 0
DWIDTH 10 0
BBX 9 19 0 0
BITMAP
040900
076C00
01F400
000000
000500
71B800
3B8000
380000
300000
240000
241800
25D000
2E0000
280000
2801C0
280A00
287400
2F8000
190000
ENDCHAR
STARTCHAR ebreve
ENCODING 277
SWIDTH 461 0
DWIDTH 9 0
BBX 9 15 0 0
BITMAP
040500
076C00
01F400
000000
019000
07A800
0D1C00
187400
3F8000
780000
B00280
300700
301D00
247400
1F8000
ENDCHAR
STARTCHAR Edotaccent
ENCODING 278
SWIDTH 474 0
DWIDTH 10 0
BBX 9 16 0 0
BITMAP
028000
000500
71B800
3B8000
380000
300000
240000
241800
25D000
2E0000
280000
2801C0
280A00
287400
2F8000
190000
ENDCHAR
STARTCHAR edotaccent
ENCODING 279
SWIDTH 461 0
DWIDTH 9 0
BBX 9 12 0 0
BITMAP
00D000
019000
07A800
0D1C00
187400
3F8000
780000
B00280
300700
301D00
247400
1F8000
ENDCHAR
STARTCHAR Eogonek
ENCODING 280
SWIDTH 474 0
DWIDTH 10 0
BBX 9 17 0 -2
BITMAP
000500
71B800
3B8000
380000
300000
240000
241800
25D000
2E0000
280000
2801C0
280A00
287400
2FE000
19D000
00A680
006E40
ENDCHAR
STARTCHAR eogonek
ENCODING 281
SWIDTH 461 0
DWIDTH 9 0
BBX 9 15 0 -4
BITMAP
019000
07A800
0D1C00
187400
3F8000
780000
B00280
300700
301D00
247400
1FC000
030000
060000
061800
02F800
ENDCHAR
STARTCHAR Ecaron
ENCODING 282
SWIDTH 474 0
DWIDTH 10 0
BBX 9 18 0 0
BITMAP
240500
081800
066000
014500
71B800
3B8000
380000
300000
240000
241800
25D000
2E0000
280000
2801C0
280A00
287400
2F8000
190000
ENDCHAR
STARTCHAR ecaron
ENCODING 283
SWIDTH 461 0
DWIDTH 9 0
BBX 9 16 0 0
BITMAP
140200
091800
026000
018000
000000
019000
07A800
0D1C00
187400
3F8000
780000
B00280
300700
301D00
247400
1F8000
ENDCHAR
STARTCHAR Gcircumflex
ENCODING 284
SWIDTH 591 0
DWIDTH 12 0
BBX 12 21 0 -2
BITMAP
002000
00B800
00C900
024240
0200D0
050000
001B40
006400
018000
030000
090000
0C01BD
2406B4
300070
6000F0
6002F0
A00A70
7AB870
1A9070
000070
000030
ENDCHAR
STARTCHAR gcircumflex
ENCODING 285
SWIDTH 437 0
DWIDTH 9 0
BBX 8 28 0 -9
BITMAP
0140
03C0
0960
0818
240A
2001
0000
0000
00B8
029D
092D
183A
246A
30DA
618A
9347
AA07
2807
0007
0007
0007
0006
0009
000C
0018
0074
06D0
0540
ENDCHAR
STARTCHAR Gbreve
ENCODING 286
SWIDTH 591 0
DWIDTH 12 0
BBX 12 19 0 -2
BITMAP
004080
00A680
002E00
000000
001B40
006400
018000
030000
090000
0C01BD
2406B4
300070
6000F0
6002F0
A00A70
7AB870
1A9070
000070
000030
ENDCHAR
STARTCHAR gbreve
ENCODING 287
SWIDTH 437 0
DWIDTH 9 0
BBX 8 25 0 -9
BITMAP
0408
0668
02E0
0000
0000
00B8
029D
092D
183A
246A
30DA
618A
9347
AA07
2807
0007
0007
0007
0006
0009
000C
0018
0074
06D0
0540
ENDCHAR
STARTCHAR Gdotaccent
ENCODING 288
SWIDTH 591 0
DWIDTH 12 0
BBX 12 18 0 -2
BITMAP
001800
000000
000000
000B80
003800
00D000
024000
060000
0901AE
1806A8
240038
3000B4
3001F4
700B64
3AB824
0A9034
000024
000024
ENDCHAR
STARTCHAR gdotaccent
ENCODING 289
SWIDTH 437 0
DWIDTH 9 0
BBX 8 22 0 -9
BITMAP
0070
0000
00B8
029D
092D
183A
246A
30DA
618A
9347
AA07
2807
0007
0007
0007
0006
0009
000C
0018
0074
06D0
0540
ENDCHAR
STARTCHAR Gcommaaccent
ENCODING 290
SWIDTH 591 0
DWIDTH 12 0
BBX 12 20 0 -7
BITMAP
001B40
006400
018000
030000
090000
0C01BD
2406B4
300070
6000F0
6002F0
A00A70
7AB870
1A9070
000070
000030
002400
002800
002400
002000
001000
ENDCHAR
STARTCHAR Hcircumflex
ENCODING 292
SWIDTH 424 0
DWIDTH 9 0
BBX 8 21 0 0
BITMAP
0200
0780
0CA0
2424
200D
5000
0000
0000
6018
600C
600C
600C
600C
602D
70A9
3B49
3806
3006
3006
3006
3002
ENDCHAR
STARTCHAR hcircumflex
ENCODING 293
SWIDTH 466 0
DWIDTH 9 0
BBX 10 19 0 0
BITMAP
001000
007800
009600
018280
5200A0
650000
600000
600000
600000
602A00
60BA80
62D180
738180
770180
7A0180
7C0180
780180
7001C0
5001C0
ENDCHAR
STARTCHAR Hbar
ENCODING 294
SWIDTH 424 0
DWIDTH 9 0
BBX 8 13 0 0
BITMAP
6018
600C
600C
7AFD
640C
602D
70A9
3B49
3806
3006
3006
3006
3002
ENDCHAR
STARTCHAR hbar
ENCODING 295
SWIDTH 466 0
DWIDTH 9 0
BBX 10 15 -1 0
BITMAP
140000
180000
180000
180000
6EA800
AD5A80
182EA0
18B460
1CE060
1DC060
1E8060
1F0060
1E0060
1C0070
140070
ENDCHAR
STARTCHAR Itilde
ENCODING 296
SWIDTH 153 0
DWIDTH 3 0
BBX 8 20 -2 0
BITMAP
0400
7B09
D36C
41E0
0000
0200
0240
0240
0240
0240
0240
0240
0240
0240
0240
0240
0240
0240
0140
0140
ENDCHAR
STARTCHAR itilde
ENCODING 297
SWIDTH 132 0
DWIDTH 3 0
BBX 8 16 -3 0
BITMAP
1A41
368B
60ED
0010
0040
0180
0180
0180
0180
0180
0180
0180
0180
0180
0180
0080
ENDCHAR
STARTCHAR imacron
ENCODING 299
SWIDTH 132 0
DWIDTH 3 0
BBX 7 15 -2 0
BITMAP
56A8
A554
0000
0100
0600
0600
0600
0600
0600
0600
0600
0600
0600
0600
0200
ENDCHAR
STARTCHAR Ibreve
ENCODING 300
SWIDTH 153 0
DWIDTH 3 0
BBX 5 20 -1 0
BITMAP
4080
66C0
1E00
0000
0000
0800
0900
0900
0900
0900
0900
0900
0900
0900
0900
0900
0900
0900
0500
0500
ENDCHAR
STARTCHAR ibreve
ENCODING 301
SWIDTH 132 0
DWIDTH 3 0
BBX 5 16 -1 0
BITMAP
4080
A680
2E00
0000
0400
1800
1800
1800
1800
1800
1800
1800
1800
1800
1800
0800
ENDCHAR
STARTCHAR Iogonek
ENCODING 302
SWIDTH 153 0
DWIDTH 3 0
BBX 5 19 0 -4
BITMAP
2000
2400
2400
2400
2400
2400
2400
2400
2400
2400
2400
2400
2400
1800
3400
A000
9000
A680
2E40
ENDCHAR
STARTCHAR iogonek
ENCODING 303
SWIDTH 132 0
DWIDTH 3 0
BBX 5 20 -1 -5
BITMAP
1400
0000
0000
0400
1800
1800
1800
1800
1800
1800
1800
1800
1800
1800
1C00
3400
6000
6000
7AC0
1900
ENDCHAR
STARTCHAR Idotaccent
ENCODING 304
SWIDTH 153 0
DWIDTH 3 0
BBX 2 18 1 0
BITMAP
D0
00
00
80
C0
C0
C0
C0
D0
90
90
90
90
90
90
90
90
90
ENDCHAR
STARTCHAR dotlessi
ENCODING 305
SWIDTH 132 0
DWIDTH 3 0
BBX 2 12 0 0
BITMAP
10
60
60
60
60
60
60
60
60
60
60
20
ENDCHAR
STARTCHAR Jcircumflex
ENCODING 308
SWIDTH 371 0
DWIDTH 7 0
BBX 9 22 0 -2
BITMAP
008000
02E000
032800
090900
080340
140000
006000
006000
003000
003000
003400
002400
002400
002800
001800
001800
001800
401800
901800
201800
0AA000
014000
ENDCHAR
STARTCHAR jcircumflex
ENCODING 309
SWIDTH 112 0
DWIDTH 2 0
BBX 9 26 -4 -7
BITMAP
008000
01E000
025800
060A00
0C0240
140000
000000
000000
000000
006000
006000
006000
006000
006000
006000
006000
007000
003000
003000
003000
003000
003000
003000
606000
19D000
068000
ENDCHAR
STARTCHAR Kcommaaccent
ENCODING 310
SWIDTH 524 0
DWIDTH 10 0
BBX 11 21 0 -7
BITMAP
100000
600100
300D00
302800
307000
24D000
268000
2B0000
2D0000
1C0000
1FAAA4
1D5550
0C0000
080000
000000
000000
00A000
007000
006000
005000
004000
ENDCHAR
STARTCHAR kcommaaccent
ENCODING 311
SWIDTH 428 0
DWIDTH 9 0
BBX 8 23 0 -7
BITMAP
1000
3000
3400
3400
3402
300A
301D
3038
70B0
71D0
7740
7D00
7800
7B40
61BA
6006
5000
0000
0180
01C0
0180
0140
0100
ENDCHAR
STARTCHAR Lacute
ENCODING 313
SWIDTH 537 0
DWIDTH 11 0
BBX 11 15 0 0
BITMAP
000400
002800
107000
700000
700000
700000
700000
700000
700000
340000
340014
3401E4
341E00
3AE000
3E0000
ENDCHAR
STARTCHAR lacute
ENCODING 314
SWIDTH 137 0
DWIDTH 3 0
BBX 3 23 0 0
BITMAP
04
34
A0
00
00
00
50
60
60
60
20
20
30
30
30
30
30
30
30
30
30
34
20
ENDCHAR
STARTCHAR Lcommaaccent
ENCODING 315
SWIDTH 537 0
DWIDTH 11 0
BBX 11 19 0 -6
BITMAP
100000
700000
700000
700000
700000
700000
700000
340000
340014
3401E4
341E00
3AE000
3E0000
000000
000000
007000
007000
006000
006000
ENDCHAR
STARTCHAR lcommaaccent
ENCODING 316
SWIDTH 137 0
DWIDTH 3 0
BBX 3 23 0 -6
BITMAP
50
60
60
60
20
20
30
30
30
30
30
30
30
30
30
34
20
00
00
70
70
70
60
ENDCHAR
STARTCHAR Lcaron
ENCODING 317
SWIDTH 537 0
DWIDTH 11 0
BBX 11 18 0 0
BITMAP
240500
081800
066000
014000
000000
100000
700000
700000
700000
700000
700000
700000
340000
340014
3401E4
341E00
3AE000
3E0000
ENDCHAR
STARTCHAR Ldot
ENCODING 319
SWIDTH 537 0
DWIDTH 11 0
BBX 11 13 0 0
BITMAP
100000
700000
700000
700000
700000
700000
700000
342000
342014
3401E4
341E00
3AE000
3E0000
ENDCHAR
STARTCHAR ldot
ENCODING 320
SWIDTH 267 0
DWIDTH 5 0
BBX 5 17 0 0
BITMAP
5000
6000
6000
6000
2000
2000
3000
3000
3000
3000
3000
3140
3140
3000
3000
3400
2000
ENDCHAR
STARTCHAR Lslash
ENCODING 321
SWIDTH 537 0
DWIDTH 11 0
BBX 12 13 -1 0
BITMAP
040000
1C0000
1C0000
1C0000
1C0000
1C0000
1C1900
0EF800
7E0005
0D0079
0D0780
0EB800
0F8000
ENDCHAR
STARTCHAR lslash
ENCODING 322
SWIDTH 137 0
DWIDTH 3 0
BBX 7 17 -2 0
BITMAP
0500
0600
0600
0600
0200
0200
0300
0300
0300
0300
0314
03F8
AF40
5300
0300
0340
0200
ENDCHAR
STARTCHAR Nacute
ENCODING 323
SWIDTH 541 0
DWIDTH 11 0
BBX 10 17 0 0
BITMAP
001000
00A040
0180C0
0000D0
600090
780090
7D0090
370090
328090
30A090
2434A0
241CA0
2806A0
1802E0
1800B0
180070
080000
ENDCHAR
STARTCHAR nacute
ENCODING 324
SWIDTH 483 0
DWIDTH 10 0
BBX 9 16 0 0
BITMAP
001000
00B000
01D000
000000
101900
607F00
60E240
71C240
724180
330180
360180
3A01C0
3D01C0
3C00C0
2800C0
280040
ENDCHAR
STARTCHAR Ncommaaccent
ENCODING 325
SWIDTH 541 0
DWIDTH 11 0
BBX 10 22 0 -6
BITMAP
000040
0000C0
0000D0
600090
780090
7D0090
370090
328090
30A090
2434A0
241CA0
2806A0
1802E0
1800B0
180070
080000
000000
000000
007000
007000
007000
006000
ENDCHAR
STARTCHAR ncommaaccent
ENCODING 326
SWIDTH 483 0
DWIDTH 10 0
BBX 9 19 0 -7
BITMAP
101900
607F00
60E240
71C240
724180
330180
360180
3A01C0
3D01C0
3C00C0
2800C0
280040
000000
000000
00D000
00D000
00D000
00C000
004000
ENDCHAR
STARTCHAR Ncaron
ENCODING 327
SWIDTH 541 0
DWIDTH 11 0
BBX 10 18 0 0
BITMAP
080140
060A00
01A440
0090C0
0000D0
600090
780090
7D0090
370090
328090
30A090
2434A0
241CA0
2806A0
1802E0
1800B0
180070
080000
ENDCHAR
STARTCHAR ncaron
ENCODING 328
SWIDTH 483 0
DWIDTH 10 0
BBX 9 16 0 0
BITMAP
180200
090900
026000
008000
101900
607F00
60E240
71C240
724180
330180
360180
3A01C0
3D01C0
3C00C0
2800C0
280040
ENDCHAR
STARTCHAR napostrophe
ENCODING 329
SWIDTH 483 0
DWIDTH 10 0
BBX 9 17 0 0
BITMAP
0A0000
060000
060000
050000
040000
101900
607F00
60E240
71C240
724180
330180
360180
3A01C0
3D01C0
3C00C0
2800C0
280040
ENDCHAR
STARTCHAR Omacron
ENCODING 332
SWIDTH 382 0
DWIDTH 8 0
BBX 9 16 0 0
BITMAP
05AA40
1A5500
005000
07F400
0D1C00
180C00
240900
300900
600900
600D00
900C00
901800
902800
607000
35D000
1E4000
ENDCHAR
STARTCHAR omacron
ENCODING 333
SWIDTH 266 0
DWIDTH 5 0
BBX 8 15 -1 0
BITMAP
16A9
A954
0000
0000
0740
0E90
0820
1830
1830
2430
2470
2460
2490
1A80
0E00
ENDCHAR
STARTCHAR Obreve
ENCODING 334
SWIDTH 382 0
DWIDTH 8 0
BBX 8 17 0 0
BITMAP
1414
1D70
07D0
0050
07F4
0D1C
180C
2409
3009
6009
600D
900C
9018
9028
6070
35D0
1E40
ENDCHAR
STARTCHAR obreve
ENCODING 335
SWIDTH 266 0
DWIDTH 5 0
BBX 6 15 0 0
BITMAP
5050
75C0
1F40
0000
1D00
3A40
2080
60C0
60C0
90C0
91C0
9180
9240
6A00
3800
ENDCHAR
STARTCHAR Ohungarumlaut
ENCODING 336
SWIDTH 382 0
DWIDTH 8 0
BBX 8 17 0 0
BITMAP
0066
01DD
0014
0050
07F4
0D1C
180C
2409
3009
6009
600D
900C
9018
9028
6070
35D0
1E40
ENDCHAR
STARTCHAR ohungarumlaut
ENCODING 337
SWIDTH 266 0
DWIDTH 5 0
BBX 5 15 0 0
BITMAP
1D80
3680
1200
0000
1D00
3A40
2080
60C0
60C0
90C0
91C0
9180
9240
6A00
3800
ENDCHAR
STARTCHAR OE
ENCODING 338
SWIDTH 732 0
DWIDTH 15 0
BBX 14 15 0 0
BITMAP
00000040
00581B40
07FEB400
0D1F4000
180D0000
24090000
30090240
60092900
600ED000
900F0000
901E0020
902E01D0
607A0A00
35D7B400
1E478000
ENDCHAR
STARTCHAR oe
ENCODING 339
SWIDTH 628 0
DWIDTH 13 0
BBX 13 11 0 0
BITMAP
1D02A000
3A4A6800
209C2800
60E9A000
60FE4000
90F40140
91F00340
91B00A00
92702800
6B25A000
380A4000
ENDCHAR
STARTCHAR Racute
ENCODING 340
SWIDTH 503 0
DWIDTH 10 0
BBX 10 19 0 0
BITMAP
000400
002C00
007400
601400
72FB80
7D00E0
7401C0
700600
706400
628000
7D0000
740000
7E4000
62E400
602E40
6001E0
600010
600000
200000
ENDCHAR
STARTCHAR racute
ENCODING 341
SWIDTH 396 0
DWIDTH 8 0
BBX 8 15 0 0
BITMAP
0010
00D0
0280
0000
0000
50BD
6280
6700
3600
3A00
2A00
2D00
1D00
1D00
0C00
ENDCHAR
STARTCHAR Rcommaaccent
ENCODING 342
SWIDTH 503 0
DWIDTH 10 0
BBX 10 23 0 -7
BITMAP
601400
72FB80
7D00E0
7401C0
700600
706400
628000
7D0000
740000
7E4000
62E400
602E40
6001E0
600010
600000
200000
000000
000000
00A000
00A000
009000
009000
004000
ENDCHAR
STARTCHAR rcommaaccent
ENCODING 343
SWIDTH 396 0
DWIDTH 8 0
BBX 8 17 0 -7
BITMAP
50BD
6280
6700
3600
3A00
2A00
2D00
1D00
1D00
0C00
0000
0000
0280
0280
0240
0240
0100
ENDCHAR
STARTCHAR Rcaron
ENCODING 344
SWIDTH 503 0
DWIDTH 10 0
BBX 10 20 0 0
BITMAP
090140
020600
019800
005000
601400
72FB80
7D00E0
7401C0
700600
706400
628000
7D0000
740000
7E4000
62E400
602E40
6001E0
600010
600000
200000
ENDCHAR
STARTCHAR rcaron
ENCODING 345
SWIDTH 396 0
DWIDTH 8 0
BBX 8 16 0 0
BITMAP
2008
1824
0990
0200
0000
0000
50BD
6280
6700
3600
3A00
2A00
2D00
1D00
1D00
0C00
ENDCHAR
STARTCHAR Sacute
ENCODING 346
SWIDTH 541 0
DWIDTH 11 0
BBX 11 18 0 0
BITMAP
000400
002800
006000
001600
00AB00
064000
1C0000
340000
A00000
900000
900000
290000
06AA90
000074
000070
000780
02B800
054000
ENDCHAR
STARTCHAR sacute
ENCODING 347
SWIDTH 366 0
DWIDTH 7 0
BBX 7 16 0 -1
BITMAP
0040
01C0
0340
0000
0000
02F0
1D00
3400
6000
6064
7BAC
140C
0034
01E0
0B40
0500
ENDCHAR
STARTCHAR Scircumflex
ENCODING 348
SWIDTH 541 0
DWIDTH 11 0
BBX 11 21 0 0
BITMAP
002000
00B800
00C900
024240
0600D0
050000
000600
00AB00
064000
1C0000
340000
A00000
900000
900000
290000
06AA90
000074
000070
000780
02B800
054000
ENDCHAR
STARTCHAR scircumflex
ENCODING 349
SWIDTH 366 0
DWIDTH 7 0
BBX 8 17 0 -1
BITMAP
0200
0780
0CA0
2424
200D
5000
02F0
1D00
3400
6000
6064
7BAC
140C
0034
01E0
0B40
0500
ENDCHAR
STARTCHAR Scedilla
ENCODING 350
SWIDTH 541 0
DWIDTH 11 0
BBX 11 20 0 -5
BITMAP
000600
00AB00
064000
1C0000
340000
A00000
900000
900000
290000
06AA90
000074
000070
000780
02BD00
054900
000B40
0002E0
000078
00006C
0007E4
ENDCHAR
STARTCHAR scedilla
ENCODING 351
SWIDTH 366 0
DWIDTH 7 0
BBX 8 17 0 -7
BITMAP
02F0
1D00
3400
6000
6064
7BAC
140C
0034
01E0
0B40
0700
0340
02E0
006C
001D
02F8
0100
ENDCHAR
STARTCHAR Scaron
ENCODING 352
SWIDTH 541 0
DWIDTH 11 0
BBX 11 18 0 0
BITMAP
090140
020600
019800
006600
00AB00
064000
1C0000
340000
A00000
900000
900000
290000
06AA90
000074
000070
000780
02B800
054000
ENDCHAR
STARTCHAR scaron
ENCODING 353
SWIDTH 366 0
DWIDTH 7 0
BBX 7 16 0 -1
BITMAP
5008
2424
0980
0600
0000
02F0
1D00
3400
6000
6064
7BAC
140C
0034
01E0
0B40
0500
ENDCHAR
STARTCHAR Tcommaaccent
ENCODING 354
SWIDTH 595 0
DWIDTH 12 0
BBX 14 21 0 -7
BITMAP
001EABD0
6BEE5400
540A0000
000A0000
00060000
00060000
00060000
00030000
00030000
00034000
00034000
00024000
00028000
00018000
00000000
00000000
0000D000
0000D000
0000C000
0000C000
00004000
ENDCHAR
STARTCHAR tcommaaccent
ENCODING 355
SWIDTH 268 0
DWIDTH 5 0
BBX 7 22 -1 -7
BITMAP
0900
0900
0900
0900
0AB4
2F80
BD00
0D00
0D00
0900
0900
0900
0900
0900
0A00
0100
0000
0340
0340
0340
0300
0100
ENDCHAR
STARTCHAR Tcaron
ENCODING 356
SWIDTH 595 0
DWIDTH 12 0
BBX 14 20 0 0
BITMAP
00500800
00246400
00098000
00060000
00000000
00000000
001EABD0
6BEE5400
540A0000
000A0000
00060000
00060000
00060000
00030000
00030000
00034000
00034000
00024000
00028000
00018000
ENDCHAR
STARTCHAR Tbar
ENCODING 358
SWIDTH 595 0
DWIDTH 12 0
BBX 14 14 0 0
BITMAP
001EABD0
6BEE5400
540A0000
000A0000
015BF400
015A4000
00060000
00030000
00030000
00034000
00034000
00024000
00028000
00018000
ENDCHAR
STARTCHAR Utilde
ENCODING 360
SWIDTH 450 0
DWIDTH 9 0
BBX 9 20 0 -2
BITMAP
010000
1EC240
34AB00
102800
000000
000100
600340
700340
700740
700740
700B40
700B00
700F00
701E00
302A40
303240
299240
0A4180
000180
000180
ENDCHAR
STARTCHAR utilde
ENCODING 361
SWIDTH 387 0
DWIDTH 8 0
BBX 8 16 0 -1
BITMAP
0400
7B09
D2AC
40A4
0000
5014
6024
6024
6024
6024
7034
3074
30F8
26D8
1F0C
0004
ENDCHAR
STARTCHAR Umacron
ENCODING 362
SWIDTH 450 0
DWIDTH 9 0
BBX 9 17 0 -2
BITMAP
15AA00
295500
000100
600340
700340
700740
700740
700B40
700B00
700F00
701E00
302A40
303240
299240
0A4180
000180
000180
ENDCHAR
STARTCHAR umacron
ENCODING 363
SWIDTH 387 0
DWIDTH 8 0
BBX 8 16 0 -1
BITMAP
16A9
6954
0000
0000
0000
5014
6024
6024
6024
6024
7034
3074
30F8
26D8
1F0C
0004
ENDCHAR
STARTCHAR Ubreve
ENCODING 364
SWIDTH 450 0
DWIDTH 9 0
BBX 9 17 0 -2
BITMAP
040800
066C00
01E100
600340
700340
700740
700740
700B40
700B00
700F00
701E00
302A40
303240
299240
0A4180
000180
000180
ENDCHAR
STARTCHAR ubreve
ENCODING 365
SWIDTH 387 0
DWIDTH 8 0
BBX 7 16 0 -1
BITMAP
0414
0D74
07D0
0000
0000
5014
6024
6024
6024
6024
7034
3074
30F8
26D8
1F0C
0004
ENDCHAR
STARTCHAR Uring
ENCODING 366
SWIDTH 450 0
DWIDTH 9 0
BBX 9 19 0 -2
BITMAP
015000
0A6400
0D1800
06A400
000100
600340
700340
700740
700740
700B40
700B00
700F00
701E00
302A40
303240
299240
0A4180
000180
000180
ENDCHAR
STARTCHAR uring
ENCODING 367
SWIDTH 387 0
DWIDTH 8 0
BBX 7 15 0 -1
BITMAP
0140
1EB0
1834
0AA0
5014
6024
6024
6024
6024
7034
3074
30F8
26D8
1F0C
0004
ENDCHAR
STARTCHAR Uhungarumlaut
ENCODING 368
SWIDTH 450 0
DWIDTH 9 0
BBX 9 18 0 -2
BITMAP
029800
077400
005000
000100
600340
700340
700740
700740
700B40
700B00
700F00
701E00
302A40
303240
299240
0A4180
000180
000180
ENDCHAR
STARTCHAR uhungarumlaut
ENCODING 369
SWIDTH 387 0
DWIDTH 8 0
BBX 7 14 0 -1
BITMAP
0A60
1DD0
0140
5014
6024
6024
6024
6024
7034
3074
30F8
26D8
1F0C
0004
ENDCHAR
STARTCHAR Uogonek
ENCODING 370
SWIDTH 450 0
DWIDTH 9 0
BBX 11 19 0 -6
BITMAP
000100
600340
700340
700740
700740
700B40
700B00
700F00
701E00
302A40
303240
299240
0A4180
000280
000A80
000C00
001C00
000EB4
000140
ENDCHAR
STARTCHAR uogonek
ENCODING 371
SWIDTH 387 0
DWIDTH 8 0
BBX 9 15 0 -5
BITMAP
501400
602400
602400
602400
602400
703400
307400
30F800
26D800
1F1C00
007400
009000
00D000
00AB80
002900
ENDCHAR
STARTCHAR Wcircumflex
ENCODING 372
SWIDTH 878 0
DWIDTH 18 0
BBX 17 21 0 0
BITMAP
0000400000
0002E00000
0006240000
00090D0000
0018074000
0010000000
0000000080
0000000180
1000100240
B000B00300
7400B40300
2400A80600
18015C0900
0C024D0C00
09030A0C00
0A06031800
0709026400
034C00F400
029800B000
01E4002000
00F0000000
ENDCHAR
STARTCHAR wcircumflex
ENCODING 373
SWIDTH 566 0
DWIDTH 11 0
BBX 11 19 0 0
BITMAP
005000
00B400
018900
020300
0601C0
080040
000000
000000
000000
60B024
70B424
249C24
18D624
0CD364
0AC1A4
07C0B8
03C038
02C018
008000
ENDCHAR
STARTCHAR Ycircumflex
ENCODING 374
SWIDTH 483 0
DWIDTH 10 0
BBX 9 22 0 0
BITMAP
008000
02E000
032400
090900
080340
140000
000040
000080
0000C0
400180
600240
280300
0D0600
074900
01DC00
007800
003400
007000
006000
009000
00C000
018000
ENDCHAR
STARTCHAR ycircumflex
ENCODING 375
SWIDTH 363 0
DWIDTH 7 0
BBX 7 27 0 -8
BITMAP
0500
0B40
1890
2030
601C
8004
0000
0000
0004
000C
A00C
3418
1C18
0D18
0718
0298
00F8
0078
0028
0028
0024
0024
0024
0024
0030
0030
0010
ENDCHAR
STARTCHAR Ydieresis
ENCODING 376
SWIDTH 483 0
DWIDTH 10 0
BBX 9 16 0 0
BITMAP
000040
035880
0104C0
400180
600240
280300
0D0600
074900
01DC00
007800
003400
007000
006000
009000
00C000
018000
ENDCHAR
STARTCHAR Zacute
ENCODING 377
SWIDTH 670 0
DWIDTH 13 0
BBX 13 19 0 0
BITMAP
00010000
000D0000
00280000
00000000
00000000
2AAAA800
15557C00
00007400
0001D000
00038000
000A0000
002C0000
00740000
00D00000
03800000
0A000000
1C000000
79555A80
7FAAAA40
ENDCHAR
STARTCHAR zacute
ENCODING 378
SWIDTH 618 0
DWIDTH 12 0
BBX 13 15 0 0
BITMAP
00010000
000A0000
00280000
00000000
00000000
001B0000
06EA0000
790D0000
001C0000
00340000
00600000
00D00000
01C01640
029BFE40
02E94000
ENDCHAR
STARTCHAR Zdotaccent
ENCODING 379
SWIDTH 670 0
DWIDTH 13 0
BBX 13 16 0 0
BITMAP
000D0000
00000000
2AAAA800
15557C00
00007400
0001D000
00038000
000A0000
002C0000
00740000
00D00000
03800000
0A000000
1C000000
79555A80
7FAAAA40
ENDCHAR
STARTCHAR zdotaccent
ENCODING 380
SWIDTH 618 0
DWIDTH 12 0
BBX 13 12 0 0
BITMAP
001C0000
00000000
001B0000
06EA0000
790D0000
001C0000
00340000
00600000
00D00000
01C01640
029BFE40
02E94000
ENDCHAR
STARTCHAR Zcaron
ENCODING 381
SWIDTH 670 0
DWIDTH 13 0
BBX 13 19 0 0
BITMAP
00801400
00609000
002A4000
00090000
00000000
2AAAA800
15557C00
00007400
0001D000
00038000
000A0000
002C0000
00740000
00D00000
03800000
0A000000
1C000000
79555A80
7FAAAA40
ENDCHAR
STARTCHAR zcaron
ENCODING 382
SWIDTH 618 0
DWIDTH 12 0
BBX 13 15 0 0
BITMAP
05008000
02464000
00980000
00600000
00000000
001B0000
06EA0000
790D0000
001C0000
00340000
00600000
00D00000
01C01640
029BFE40
02E94000
ENDCHAR
STARTCHAR florin
ENCODING 402
SWIDTH 345 0
DWIDTH 7 0
BBX 8 23 -1 -5
BITMAP
00A0
02F4
0298
0340
0340
0300
0300
0301
036E
07E4
1F00
0300
0300
0300
0340
0340
0340
0240
0280
0280
0280
0680
6F40
ENDCHAR
STARTCHAR AEacute
ENCODING 508
SWIDTH 708 0
DWIDTH 14 0
BBX 14 19 0 0
BITMAP
00040000
001C0000
00740000
00000000
0C000140
0E286D00
1F1FD000
1A5D0000
198C0000
28CC0100
249C1900
246DA000
343F4000
35BD0000
3E6D00A0
701D0740
600D2800
600BD000
50050000
ENDCHAR
STARTCHAR aeacute
ENCODING 509
SWIDTH 705 0
DWIDTH 14 0
BBX 14 15 0 0
BITMAP
00004000
00034000
000A0000
00000000
01A0FD00
03B68700
0A370A00
1C7EB400
28BF8000
70FD0060
A2AC00D0
971C0280
CA1C0A00
B80EB400
60094000
ENDCHAR
STARTCHAR Oslashacute
ENCODING 510
SWIDTH 382 0
DWIDTH 8 0
BBX 8 20 0 -2
BITMAP
0010
00A0
0180
0000
0064
07F4
0D3C
185C
2499
30C9
6189
624D
930C
9618
9928
6C70
3DD0
2E40
2000
1000
ENDCHAR
STARTCHAR oslashacute
ENCODING 511
SWIDTH 266 0
DWIDTH 5 0
BBX 6 18 0 -2
BITMAP
0100
0700
0D00
0000
0050
1EC0
3A80
2280
63C0
66C0
99C0
A9C0
B580
B240
7A00
B800
C000
4000
ENDCHAR
STARTCHAR Scommaaccent
ENCODING 536
SWIDTH 541 0
DWIDTH 11 0
BBX 11 21 0 -6
BITMAP
000600
00AB00
064000
1C0000
340000
A00000
900000
900000
290000
06AA90
000074
000070
000780
02B800
054000
000000
000000
007000
007000
007000
006000
ENDCHAR
STARTCHAR scommaaccent
ENCODING 537
SWIDTH 366 0
DWIDTH 7 0
BBX 7 17 0 -7
BITMAP
02F0
1D00
3400
6000
6064
7BAC
140C
0034
01E0
0B40
0500
0000
0340
0340
0300
0300
0100
ENDCHAR
STARTCHAR circumflex
ENCODING 710
SWIDTH 390 0
DWIDTH 8 0
BBX 8 6 0 13
BITMAP
0200
0780
0CA0
1424
200D
5000
ENDCHAR
STARTCHAR caron
ENCODING 711
SWIDTH 390 0
DWIDTH 8 0
BBX 7 4 1 12
BITMAP
9014
2060
1980
0500
ENDCHAR
STARTCHAR breve
ENCODING 728
SWIDTH 390 0
DWIDTH 8 0
BBX 5 3 1 12
BITMAP
4080
66C0
1E00
ENDCHAR
STARTCHAR dotaccent
ENCODING 729
SWIDTH 128 0
DWIDTH 3 0
BBX 2 1 0 11
BITMAP
A0
ENDCHAR
STARTCHAR ring
ENCODING 730
SWIDTH 266 0
DWIDTH 5 0
BBX 5 4 0 10
BITMAP
1500
7680
A1C0
6A40
ENDCHAR
STARTCHAR ogonek
ENCODING 731
SWIDTH 366 0
DWIDTH 7 0
BBX 5 6 2 -5
BITMAP
1000
7000
D000
C000
D640
6E00
ENDCHAR
STARTCHAR tilde
ENCODING 732
SWIDTH 458 0
DWIDTH 9 0
BBX 8 4 1 11
BITMAP
1400
AE0D
C368
41E0
ENDCHAR
STARTCHAR hungarumlaut
ENCODING 733
SWIDTH 239 0
DWIDTH 5 0
BBX 5 3 0 9
BITMAP
2940
A740
4900
ENDCHAR
STARTCHAR Wgrave
ENCODING 7808
SWIDTH 878 0
DWIDTH 18 0
BBX 17 19 0 0
BITMAP
0000800000
0000D00000
0000700000
0000000000
0000000080
0000000180
1000100240
B000B00300
7400B40300
2400A80600
18015C0900
0C024D0C00
09030A0C00
0A06031800
0709026400
034C00F400
029800B000
01E4002000
00F0000000
ENDCHAR
STARTCHAR wgrave
ENCODING 7809
SWIDTH 566 0
DWIDTH 11 0
BBX 11 15 0 0
BITMAP
004000
00A000
002400
000000
000000
60B024
70B424
249C24
18D624
0CD364
0AC1A4
07C0B8
03C038
02C018
008000
ENDCHAR
STARTCHAR Wacute
ENCODING 7810
SWIDTH 878 0
DWIDTH 18 0
BBX 17 19 0 0
BITMAP
0000400000
0001D00000
0003400000
0000000000
0000000080
0000000180
1000100240
B000B00300
7400B40300
2400A80600
18015C0900
0C024D0C00
09030A0C00
0A06031800
0709026400
034C00F400
029800B000
01E4002000
00F0000000
ENDCHAR
STARTCHAR wacute
ENCODING 7811
SWIDTH 566 0
DWIDTH 11 0
BBX 11 15 0 0
BITMAP
000400
001C00
003400
000000
000000
60B024
70B424
249C24
18D624
0CD364
0AC1A4
07C0B8
03C038
02C018
008000
ENDCHAR
STARTCHAR Wdieresis
ENCODING 7812
SWIDTH 878 0
DWIDTH 18 0
BBX 17 17 0 0
BITMAP
00025C0000
0001040000
0000000080
0000000180
1000100240
B000B00300
7400B40300
2400A80600
18015C0900
0C024D0C00
09030A0C00
0A06031800
0709026400
034C00F400
029800B000
01E4002000
00F0000000
ENDCHAR
STARTCHAR wdieresis
ENCODING 7813
SWIDTH 566 0
DWIDTH 11 0
BBX 11 15 0 0
BITMAP
01CA00
004400
000000
000000
000000
60B024
70B424
249C24
18D624
0CD364
0AC1A4
07C0B8
03C038
02C018
008000
ENDCHAR
STARTCHAR Ygrave
ENCODING 7922
SWIDTH 483 0
DWIDTH 10 0
BBX 9 20 0 0
BITMAP
004000
00D000
006000
000000
000040
000080
0000C0
400180
600240
280300
0D0600
074900
01DC00
007800
003400
007000
006000
009000
00C000
018000
ENDCHAR
STARTCHAR ygrave
ENCODING 7923
SWIDTH 363 0
DWIDTH 7 0
BBX 7 23 0 -8
BITMAP
0400
0A00
0240
0000
0004
000C
A00C
3418
1C18
0D18
0718
0298
00F8
0078
0028
0028
0024
0024
0024
0024
0030
0030
0010
ENDCHAR
STARTCHAR endash
ENCODING 8211
SWIDTH 399 0
DWIDTH 8 0
BBX 8 4 0 3
BITMAP
0005
01B9
6E40
5000
ENDCHAR
STARTCHAR emdash
ENCODING 8212
SWIDTH 549 0
DWIDTH 11 0
BBX 10 3 0 3
BITMAP
005BF0
6BA500
500000
ENDCHAR
STARTCHAR quoteleft
ENCODING 8216
SWIDTH 155 0
DWIDTH 3 0
BBX 2 6 0 7
BITMAP
10
70
70
30
30
20
ENDCHAR
STARTCHAR quoteright
ENCODING 8217
SWIDTH 155 0
DWIDTH 3 0
BBX 2 6 0 7
BITMAP
10
70
70
30
30
20
ENDCHAR
STARTCHAR quotesinglbase
ENCODING 8218
SWIDTH 155 0
DWIDTH 3 0
BBX 2 6 1 0
BITMAP
40
C0
D0
C0
80
80
ENDCHAR
STARTCHAR quotedblleft
ENCODING 8220
SWIDTH 212 0
DWIDTH 4 0
BBX 4 6 0 10
BITMAP
51
66
66
66
26
20
ENDCHAR
STARTCHAR quotedblright
ENCODING 8221
SWIDTH 212 0
DWIDTH 4 0
BBX 4 6 0 10
BITMAP
51
66
66
66
26
20
ENDCHAR
STARTCHAR quotedblbase
ENCODING 8222
SWIDTH 212 0
DWIDTH 4 0
BBX 4 6 0 0
BITMAP
50
66
66
26
26
21
ENDCHAR
STARTCHAR dagger
ENCODING 8224
SWIDTH 268 0
DWIDTH 5 0
BBX 7 16 -1 -1
BITMAP
0900
0900
0900
0900
0AB4
2F80
BD00
0D00
0D00
0900
0900
0900
0900
0900
0A00
0100
ENDCHAR
STARTCHAR daggerdbl
ENCODING 8225
SWIDTH 326 0
DWIDTH 7 0
BBX 7 16 0 -1
BITMAP
0900
0900
0900
0900
0AB4
2F80
BD00
0EB4
6E40
5D00
0900
0900
0900
0900
0900
0100
ENDCHAR
STARTCHAR bullet
ENCODING 8226
SWIDTH 189 0
DWIDTH 4 0
BBX 3 4 1 4
BITMAP
10
F4
F0
50
ENDCHAR
STARTCHAR ellipsis
ENCODING 8230
SWIDTH 387 0
DWIDTH 8 0
BBX 7 2 0 0
BITMAP
1004
725C
ENDCHAR
STARTCHAR guilsinglleft
ENCODING 8249
SWIDTH 409 0
DWIDTH 8 0
BBX 7 11 1 2
BITMAP
0008
0028
00E0
0780
1D00
A000
E000
2D00
0790
00B4
0010
ENDCHAR
STARTCHAR guilsinglright
ENCODING 8250
SWIDTH 450 0
DWIDTH 9 0
BBX 7 11 1 2
BITMAP
E000
6D00
06D0
0078
0018
0034
01D0
0740
2D00
A000
4000
ENDCHAR
STARTCHAR fraction
ENCODING 8260
SWIDTH 306 0
DWIDTH 6 0
BBX 6 16 0 -2
BITMAP
0050
0080
00C0
0180
0240
0300
0600
0900
0C00
1800
2400
2000
2000
5000
8000
4000
ENDCHAR
STARTCHAR Euro
ENCODING 8364
SWIDTH 589 0
DWIDTH 12 0
BBX 11 15 0 0
BITMAP
000640
002AC0
007040
009000
00C000
018000
025400
7FA400
170000
066E00
5B9400
5A0008
06001C
0341B4
01FF80
ENDCHAR
STARTCHAR trademark
ENCODING 8482
SWIDTH 1278 0
DWIDTH 26 0
BBX 25 15 0 0
BITMAP
00000074000D00
001EABFD001D00
6BEE5426002900
540A0023402600
000A0021806600
00060030D09600
0006003060C200
00060024358200
000300241A4300
000300240F0300
00034024050240
00034028000240
00024028000280
00028028000180
00018028000180
ENDCHAR
STARTCHAR minus
ENCODING 8722
SWIDTH 358 0
DWIDTH 7 0
BBX 6 2 1 5
BITMAP
0550
AA90
ENDCHAR
STARTCHAR commaaccent
ENCODING 63171
SWIDTH 450 0
DWIDTH 9 0
BBX 2 5 3 -7
BITMAP
60
70
60
50
40
ENDCHAR
STARTCHAR fi
ENCODING 64257
SWIDTH 409 0
DWIDTH 8 0
BBX 7 18 0 0
BITMAP
0280
0BD0
0A60
0D14
0D04
0C00
0C04
0C0C
0CBC
1F9C
7C0C
0C0C
0C0C
0D0C
090C
090C
090C
090C
ENDCHAR
STARTCHAR fl
ENCODING 64258
SWIDTH 416 0
DWIDTH 8 0
BBX 8 18 0 0
BITMAP
0280
0BD4
0A6C
0D0C
0D08
0C08
0C08
0C09
0CBD
1F99
7C09
0C05
0C05
0D05
0906
090A
090A
090A
ENDCHAR
STARTCHAR .notdef
ENCODING -1
SWIDTH 450 0
DWIDTH 9 0
BBX 1 1 0 0
BITMAP
00
ENDCHAR
STARTCHAR .null
ENCODING -1
SWIDTH 0 0
DWIDTH 0 0
BBX 1 1 0 0
BITMAP
00
ENDCHAR
STARTCHAR nonmarkingreturn
ENCODING -1
SWIDTH 450 0
DWIDTH 9 0
BBX 1 1 0 0
BITMAP
00
ENDCHAR
ENDFONT
